<?xml version="1.0" encoding="UTF-8"?>
<svg version="1.1" xmlns="http://www.w3.org/2000/svg" width="768" height="768">
<path d="M0 0 C0.69836309 -0.00235223 1.39672619 -0.00470446 2.1162518 -0.00712797 C4.47392885 -0.01382463 6.83155087 -0.01335955 9.18923664 -0.01294994 C10.88966767 -0.01624815 12.59009792 -0.01997363 14.29052716 -0.02409142 C18.97715537 -0.0341244 23.66377077 -0.0378303 28.3504082 -0.04048073 C33.39964095 -0.04437993 38.44886352 -0.05395851 43.49808979 -0.0626936 C55.69868747 -0.08246865 67.89928599 -0.09252542 80.09989569 -0.10142139 C85.84243812 -0.10580248 91.58497962 -0.11116974 97.32752132 -0.11641026 C116.4119008 -0.13342339 135.49627969 -0.14791827 154.58066559 -0.155159 C159.53468737 -0.15706896 164.48870914 -0.15898928 169.4427309 -0.16094494 C170.67405982 -0.16142868 171.90538873 -0.16191242 173.17403064 -0.16241082 C193.12739799 -0.17071376 213.08070543 -0.19605477 233.03404661 -0.22852562 C253.51000613 -0.26157586 273.98593518 -0.27960591 294.46192151 -0.28280324 C305.96237483 -0.28497019 317.46274079 -0.29374601 328.96316814 -0.31926441 C338.75610163 -0.34094358 348.54892654 -0.34903553 358.3418813 -0.33929763 C363.33931068 -0.3347449 368.33651594 -0.33669569 373.33391476 -0.35605907 C377.90920417 -0.37363398 382.48410499 -0.37273923 387.05939821 -0.35716178 C388.71422256 -0.35477707 390.36907341 -0.35915385 392.02385714 -0.37099043 C408.85158231 -0.48389871 408.85158231 -0.48389871 416.22666645 5.88031483 C416.89568989 6.71756092 416.89568989 6.71756092 417.57822895 7.57172108 C418.03971333 8.12730701 418.5011977 8.68289295 418.97666645 9.25531483 C421.82018805 13.61115524 422.56216619 17.53029745 422.70322895 22.69672108 C422.75479145 23.81176014 422.80635395 24.9267992 422.85947895 26.07562733 C422.07277545 35.66170903 414.50703635 45.24209078 409.70322895 53.32172108 C404.76493857 61.7031265 399.93033983 70.13194991 395.20322895 78.63422108 C390.06733625 87.86376457 384.80109793 97.00660046 379.45322895 106.11468983 C375.28078739 113.23950633 371.21841873 120.41975944 367.20322895 127.63422108 C362.10491971 136.79145423 356.8901484 145.87115277 351.58945942 154.91254139 C347.1204416 162.54220918 342.70961264 170.20399594 338.32822895 177.88422108 C337.9948653 178.46853901 337.66150166 179.05285694 337.31803608 179.65488148 C335.62319405 182.62614088 333.92914911 185.5978538 332.23545551 188.56976795 C329.22852151 193.84515403 326.21463278 199.11656546 323.20121479 204.3882494 C321.53492965 207.30340766 319.86910268 210.2188277 318.20322895 213.13422108 C317.53656447 214.300889 316.86989781 215.46755566 316.20322895 216.63422108 C315.87322895 217.21172108 315.54322895 217.78922108 315.20322895 218.38422108 C296.20322893 251.63422111 296.20322893 251.63422111 295.20324421 253.38419056 C294.5365223 254.55095645 293.86980477 255.71772484 293.20309162 256.88449574 C291.53730611 259.79966486 289.87144468 262.71479055 288.20542622 265.62982655 C285.19482582 270.89765303 282.18478748 276.16579667 279.17756367 281.43555164 C271.76483232 294.42525463 264.32711807 307.39994152 256.84531879 320.35004139 C252.63504349 327.64167816 248.44391076 334.94405625 244.26813984 342.25549793 C243.2714293 343.99924829 242.27281194 345.74189429 241.27378559 347.48431873 C238.13890099 352.95727902 235.02419603 358.43949648 231.96856403 363.95718861 C230.54362421 366.52748373 229.10856971 369.09206394 227.67268085 371.65625477 C226.99452852 372.87394081 226.32129194 374.09438 225.65345478 375.31775379 C220.83587146 384.13919019 216.23037105 391.44636418 206.30479145 394.66547108 C199.53159187 396.17622191 193.32911439 395.39706111 187.20322895 392.13422108 C183.89592431 389.86824074 181.44513308 387.49707728 179.20322895 384.13422108 C179.1999188 384.72229133 179.19660866 385.31036158 179.1931982 385.91625214 C179.11195211 400.23010913 179.01985436 414.54386594 178.91570187 428.85757446 C178.86559559 435.77960154 178.81915248 442.7016169 178.78135395 449.62372303 C178.74487546 456.30220036 178.69816106 462.98053403 178.64516544 469.65890408 C178.62661311 472.20859312 178.61150828 474.75830962 178.59988499 477.30803967 C178.58303723 480.87547809 178.55400494 484.44262265 178.52207661 488.0099535 C178.51883633 489.59599133 178.51883633 489.59599133 178.51553059 491.21407032 C178.5043671 492.18857136 178.49320362 493.1630724 178.48170185 494.16710377 C178.47617109 495.01054435 178.47064034 495.85398493 178.46494198 496.72298431 C178.01091089 500.90610223 176.88235535 503.49083817 173.82822895 506.38422108 C169.95643164 508.96541928 166.80758732 509.25899419 162.2136507 509.27466297 C161.20856968 509.28037312 160.20348866 509.28608326 159.16795063 509.29196644 C158.07124043 509.2930843 156.97453022 509.29420216 155.84458637 509.29535389 C154.68481785 509.30031879 153.52504932 509.3052837 152.3301363 509.31039906 C148.48965075 509.32501589 144.64920651 509.33182176 140.8086977 509.33734608 C138.81500264 509.34164415 136.82130758 509.34594274 134.8276127 509.35032058 C129.27246607 509.36212558 123.71732943 509.36966682 118.16217154 509.37311578 C110.98832442 509.37759477 103.814668 509.39513841 96.64087886 509.42411637 C91.0882892 509.44576362 85.53575308 509.45582168 79.98312169 509.4571569 C76.67019242 509.45820276 73.357483 509.46551902 70.04458904 509.48197651 C66.34626423 509.49903791 62.64840336 509.49715621 58.95005512 509.49066639 C57.85941761 509.49988117 56.7687801 509.50909595 55.64509296 509.51858997 C49.71689718 509.48601601 45.41990239 509.03427194 40.20322895 506.13422108 C36.80348906 502.50783186 36.07952273 499.18006783 36.06456375 494.31412697 C36.05908931 493.31538608 36.05361486 492.3166452 36.04797453 491.28763944 C36.04650737 489.63736683 36.04650737 489.63736683 36.04501057 487.95375538 C36.04007259 486.78737968 36.03513461 485.62100398 36.030047 484.41928357 C36.01731847 481.17661118 36.00904359 477.93396205 36.00262034 474.69127214 C35.9946224 471.19639216 35.98092253 467.70153406 35.96790791 464.20666981 C35.94613656 458.14985113 35.92799448 452.09303025 35.91230297 446.03619289 C35.88961034 437.27897535 35.86146667 428.52178204 35.83198369 419.76458504 C35.78430034 405.55732272 35.74103817 391.3500505 35.7005434 377.142766 C35.66119226 363.34002379 35.61976695 349.53729037 35.5755434 335.73456287 C35.57281913 334.8840573 35.57009486 334.03355174 35.56728803 333.15727327 C35.55360862 328.89062476 35.53988833 324.62397637 35.52614772 320.35732806 C35.41217127 284.94964396 35.3053645 249.54194123 35.20322895 214.13422108 C31.79186419 214.07262688 31.79186419 214.07262688 28.20322895 215.13422108 C24.40861296 220.79521608 24.78129847 226.82208371 24.82468891 233.45161915 C24.81789372 235.15095652 24.81789372 235.15095652 24.81096125 236.88462394 C24.79934305 240.67700593 24.80898222 244.46903483 24.81846333 248.26141834 C24.81603646 250.98175326 24.80905176 253.70207171 24.8021822 256.42239857 C24.78962978 262.27835709 24.7876379 268.13424178 24.79253864 273.99021053 C24.79935206 282.46342938 24.78682009 290.93653706 24.76903147 299.40973603 C24.74039674 313.16644427 24.72287243 326.9231405 24.71445942 340.67987537 C24.71369865 341.91417725 24.71369865 341.91417725 24.71292251 343.17341452 C24.70889035 349.8504591 24.70539628 356.52750394 24.70192528 363.20454884 C24.69886771 369.04267868 24.69559552 374.88080834 24.69199848 380.71893787 C24.69149587 381.54110417 24.69099325 382.36327046 24.6904754 383.21035088 C24.68173237 396.91767492 24.66129955 410.62495763 24.63251638 424.33225387 C24.61533599 432.78474777 24.60875173 441.23712477 24.61582243 449.68963384 C24.62000045 455.47939866 24.61365627 461.26908972 24.5990237 467.05883736 C24.59096307 470.39939807 24.58950136 473.73962372 24.59784603 477.08020687 C24.60619864 480.70158201 24.59626974 484.32246155 24.58176899 487.94380665 C24.59210989 489.52711783 24.59210989 489.52711783 24.6026597 491.14241511 C24.56029346 496.55919511 24.28900831 500.47130698 21.20322895 505.13422108 C17.25874024 508.82422665 13.46563109 509.25674976 8.2136507 509.27466297 C7.20856968 509.28037312 6.20348866 509.28608326 5.16795063 509.29196644 C4.07124043 509.2930843 2.97453022 509.29420216 1.84458637 509.29535389 C0.68481785 509.30031879 -0.47495068 509.3052837 -1.6698637 509.31039906 C-5.51034925 509.32501589 -9.35079349 509.33182176 -13.1913023 509.33734608 C-15.18499736 509.34164415 -17.17869242 509.34594274 -19.1723873 509.35032058 C-24.72753393 509.36212558 -30.28267057 509.36966682 -35.83782846 509.37311578 C-43.01167558 509.37759477 -50.185332 509.39513841 -57.35912114 509.42411637 C-62.9117108 509.44576362 -68.46424692 509.45582168 -74.01687831 509.4571569 C-77.32980758 509.45820276 -80.642517 509.46551902 -83.95541096 509.48197651 C-87.65373577 509.49903791 -91.35159664 509.49715621 -95.04994488 509.49066639 C-96.14058239 509.49988117 -97.2312199 509.50909595 -98.35490704 509.51858997 C-104.28310282 509.48601601 -108.58009761 509.03427194 -113.79677105 506.13422108 C-117.16309362 502.543477 -117.92054785 499.24439056 -117.93264294 494.42179775 C-117.93750068 493.44704074 -117.94235843 492.47228372 -117.94736338 491.46798861 C-117.94765936 490.39456316 -117.94795535 489.32113771 -117.94826031 488.21518421 C-117.95460892 486.50766438 -117.95460892 486.50766438 -117.9610858 484.7656492 C-117.97415705 480.93098569 -117.98014696 477.09634299 -117.98622417 473.26166248 C-117.99360731 470.52059577 -118.00249948 467.77953448 -118.0113554 465.03847218 C-118.02971429 459.12571817 -118.0445562 453.21296374 -118.05713177 447.30019474 C-118.07541685 438.74583258 -118.1000821 430.19149783 -118.12650567 421.63715737 C-118.16931421 407.75174735 -118.20842405 393.86632977 -118.24452496 379.98090076 C-118.24776916 378.73384057 -118.24776916 378.73384057 -118.2510789 377.46158724 C-118.26640582 371.56079876 -118.28160186 365.66000996 -118.29677105 359.75922108 C-118.31409255 353.02224167 -118.33147822 346.28526243 -118.34901714 339.54828358 C-118.35225545 338.30364871 -118.35225545 338.30364871 -118.35555917 337.0338697 C-118.391663 323.20351797 -118.43161719 309.37317993 -118.47431993 295.54284704 C-118.50048033 287.00927523 -118.52313846 278.47570758 -118.54130352 269.94211493 C-118.55396794 264.09533784 -118.57009317 258.24857699 -118.58895266 252.40181662 C-118.59971215 249.02707716 -118.60829132 245.65236849 -118.61364841 242.27761364 C-118.61968109 238.62078779 -118.63172283 234.96402976 -118.64528179 231.30722523 C-118.64557778 230.23826122 -118.64587377 229.16929721 -118.64617872 228.06794035 C-118.65103647 227.08796784 -118.65589421 226.10799533 -118.66089916 225.09832668 C-118.66407312 223.83231025 -118.66407312 223.83231025 -118.66731119 222.54071772 C-118.80440178 219.99237537 -119.23847116 217.62153255 -119.79677105 215.13422108 C-121.77677105 215.13422108 -123.75677105 215.13422108 -125.79677105 215.13422108 C-130.9963237 223.49871882 -129.94487732 234.09835651 -129.93480206 243.6356554 C-129.93762334 244.74000183 -129.94044461 245.84434826 -129.94335139 246.98215973 C-129.9516327 250.65378512 -129.95303 254.32538011 -129.95448589 257.99701405 C-129.95915856 260.64073864 -129.96423697 263.28445928 -129.96988201 265.92818165 C-129.98135889 271.60616232 -129.9896281 277.28414009 -129.99600124 282.96212864 C-130.0063661 291.93692173 -130.02693646 300.91167832 -130.0491209 309.88644886 C-130.05659857 312.96148193 -130.06401249 316.03651515 -130.07140827 319.11154842 C-130.07418412 320.26389906 -130.07418412 320.26389906 -130.07701605 321.4395295 C-130.09790367 330.16588151 -130.11675416 338.89223748 -130.13466167 347.61859608 C-130.13629986 348.41553938 -130.13793804 349.21248269 -130.13962586 350.03357579 C-130.16595864 362.97224522 -130.18458019 375.91091749 -130.20125358 388.84960245 C-130.21866558 402.14686436 -130.24749395 415.44407022 -130.28614295 428.74128735 C-130.30954053 436.93761104 -130.32353728 445.13384339 -130.32547058 453.33020075 C-130.32782644 459.60283393 -130.34567477 465.87533458 -130.36933994 472.14792156 C-130.37655428 474.7226879 -130.37862364 477.29747443 -130.37523746 479.87224865 C-130.37136025 483.37992819 -130.38574085 486.88706963 -130.40477276 490.39468861 C-130.39924306 491.41928617 -130.39371337 492.44388374 -130.3880161 493.49952972 C-130.47093297 502.31856176 -130.47093297 502.31856176 -133.79677105 506.13422108 C-140.29852502 509.49945586 -146.30162866 509.56324529 -153.51771832 509.52240467 C-154.66831738 509.52766163 -155.81891644 509.53291859 -157.00438213 509.53833485 C-160.79078708 509.55149069 -164.5767684 509.54281259 -168.3631773 509.53265858 C-171.00298423 509.53468043 -173.64279061 509.5375928 -176.28259563 509.54135609 C-181.80779354 509.54680085 -187.33287079 509.53965501 -192.85805035 509.52533436 C-199.23269006 509.50900211 -205.60704196 509.51430549 -211.98167473 509.53081357 C-218.13264833 509.54610066 -224.28349499 509.54444134 -230.43447971 509.53566837 C-233.04394286 509.53366925 -235.65341338 509.53611551 -238.26286793 509.54310703 C-241.9105153 509.55073658 -245.5576119 509.53909559 -249.20521832 509.52240467 C-250.28022091 509.52847736 -251.3552235 509.53455006 -252.46280193 509.54080677 C-259.12616115 509.48440136 -264.30309373 508.92916294 -269.67177105 504.63422108 C-271.96003406 501.58320373 -271.92328045 498.6509974 -271.92819881 494.992383 C-271.93203996 493.9217579 -271.9358811 492.8511328 -271.93983865 491.74806452 C-271.93897217 490.56746029 -271.93810568 489.38685607 -271.93721294 488.17047596 C-271.94018407 486.91950076 -271.94315519 485.66852555 -271.94621634 484.37964201 C-271.95429465 480.90001132 -271.9560764 477.42040124 -271.95681381 473.94076228 C-271.95866317 470.18989968 -271.9662104 466.43904782 -271.97294903 462.68819141 C-271.98654354 454.47867893 -271.99256014 446.26917133 -271.99695969 438.05964947 C-271.99972287 432.92815898 -272.00396063 427.79667038 -272.00846386 422.66518116 C-272.020663 408.44561093 -272.03095777 394.22604221 -272.03433895 380.00646687 C-272.03455852 379.09586003 -272.03477808 378.1852532 -272.0350043 377.24705222 C-272.03533172 375.87791087 -272.03533172 375.87791087 -272.03566575 374.4811101 C-272.03610921 372.6315937 -272.03655577 370.78207731 -272.03700542 368.93256092 C-272.03722685 368.01514136 -272.03744828 367.0977218 -272.03767642 366.15250164 C-272.04161557 351.32159381 -272.05903964 336.49073539 -272.08236495 321.6598466 C-272.1061435 306.41692066 -272.11854392 291.1740194 -272.11970687 275.93107462 C-272.12062052 267.37966793 -272.12629338 258.82832543 -272.14452648 250.27693653 C-272.16001615 242.98651487 -272.16499652 235.69617718 -272.15678838 228.40574217 C-272.1529116 224.69301568 -272.15366328 220.98045781 -272.16784573 217.26775265 C-272.31629026 176.00307437 -263.97670737 138.40984959 -234.56239605 107.87250233 C-209.09549135 82.65738905 -175.06563593 72.04595434 -139.79677105 72.13422108 C-108.67670103 73.05811643 -79.73148358 84.79467325 -57.79677105 107.13422108 C-49.25998851 116.74456869 -49.25998851 116.74456869 -47.79677105 121.13422108 C-45.15219649 118.53764243 -42.57265442 115.91972797 -40.1053648 113.15375233 C-27.1381058 98.61887374 -12.73827714 87.78578337 5.20322895 80.13422108 C2.74681748 75.82062337 0.28808487 71.50835502 -2.17177105 67.19672108 C-2.53514568 66.5595113 -2.89852032 65.92230152 -3.2729063 65.26578236 C-8.06526816 56.86502114 -12.88204483 48.48195205 -17.87636089 40.19891834 C-22.74603792 32.04496513 -23.79978496 25.6364581 -22.79677105 16.13422108 C-20.63208859 9.16696405 -15.99264801 4.76360507 -9.79677105 1.13422108 C-6.33445675 -0.01988369 -3.65438201 0.00523258 0 0 Z " fill="#F8CD06" transform="translate(327.7967710494995,130.86577892303467)"/>
<path d="M0 0 C0.69836309 -0.00235223 1.39672619 -0.00470446 2.1162518 -0.00712797 C4.47392885 -0.01382463 6.83155087 -0.01335955 9.18923664 -0.01294994 C10.88966767 -0.01624815 12.59009792 -0.01997363 14.29052716 -0.02409142 C18.97715537 -0.0341244 23.66377077 -0.0378303 28.3504082 -0.04048073 C33.39964095 -0.04437993 38.44886352 -0.05395851 43.49808979 -0.0626936 C55.69868747 -0.08246865 67.89928599 -0.09252542 80.09989569 -0.10142139 C85.84243812 -0.10580248 91.58497962 -0.11116974 97.32752132 -0.11641026 C116.4119008 -0.13342339 135.49627969 -0.14791827 154.58066559 -0.155159 C159.53468737 -0.15706896 164.48870914 -0.15898928 169.4427309 -0.16094494 C170.67405982 -0.16142868 171.90538873 -0.16191242 173.17403064 -0.16241082 C193.12739799 -0.17071376 213.08070543 -0.19605477 233.03404661 -0.22852562 C253.51000613 -0.26157586 273.98593518 -0.27960591 294.46192151 -0.28280324 C305.96237483 -0.28497019 317.46274079 -0.29374601 328.96316814 -0.31926441 C338.75610163 -0.34094358 348.54892654 -0.34903553 358.3418813 -0.33929763 C363.33931068 -0.3347449 368.33651594 -0.33669569 373.33391476 -0.35605907 C377.90920417 -0.37363398 382.48410499 -0.37273923 387.05939821 -0.35716178 C388.71422256 -0.35477707 390.36907341 -0.35915385 392.02385714 -0.37099043 C408.85158231 -0.48389871 408.85158231 -0.48389871 416.22666645 5.88031483 C416.89568989 6.71756092 416.89568989 6.71756092 417.57822895 7.57172108 C418.03971333 8.12730701 418.5011977 8.68289295 418.97666645 9.25531483 C421.82018805 13.61115524 422.56216619 17.53029745 422.70322895 22.69672108 C422.75479145 23.81176014 422.80635395 24.9267992 422.85947895 26.07562733 C422.07277545 35.66170903 414.50703635 45.24209078 409.70322895 53.32172108 C404.76493857 61.7031265 399.93033983 70.13194991 395.20322895 78.63422108 C390.06733625 87.86376457 384.80109793 97.00660046 379.45322895 106.11468983 C375.28078739 113.23950633 371.21841873 120.41975944 367.20322895 127.63422108 C362.10491971 136.79145423 356.8901484 145.87115277 351.58945942 154.91254139 C347.1204416 162.54220918 342.70961264 170.20399594 338.32822895 177.88422108 C337.9948653 178.46853901 337.66150166 179.05285694 337.31803608 179.65488148 C335.62319405 182.62614088 333.92914911 185.5978538 332.23545551 188.56976795 C329.22852151 193.84515403 326.21463278 199.11656546 323.20121479 204.3882494 C321.53492965 207.30340766 319.86910268 210.2188277 318.20322895 213.13422108 C317.53656447 214.300889 316.86989781 215.46755566 316.20322895 216.63422108 C315.87322895 217.21172108 315.54322895 217.78922108 315.20322895 218.38422108 C296.20322893 251.63422111 296.20322893 251.63422111 295.20324421 253.38419056 C294.5365223 254.55095645 293.86980477 255.71772484 293.20309162 256.88449574 C291.53730611 259.79966486 289.87144468 262.71479055 288.20542622 265.62982655 C285.19482582 270.89765303 282.18478748 276.16579667 279.17756367 281.43555164 C271.76483232 294.42525463 264.32711807 307.39994152 256.84531879 320.35004139 C252.63504349 327.64167816 248.44391076 334.94405625 244.26813984 342.25549793 C243.2714293 343.99924829 242.27281194 345.74189429 241.27378559 347.48431873 C238.13890099 352.95727902 235.02419603 358.43949648 231.96856403 363.95718861 C230.54362421 366.52748373 229.10856971 369.09206394 227.67268085 371.65625477 C226.99452852 372.87394081 226.32129194 374.09438 225.65345478 375.31775379 C220.83587146 384.13919019 216.23037105 391.44636418 206.30479145 394.66547108 C199.53159187 396.17622191 193.32911439 395.39706111 187.20322895 392.13422108 C183.89592431 389.86824074 181.44513308 387.49707728 179.20322895 384.13422108 C179.1999188 384.72229133 179.19660866 385.31036158 179.1931982 385.91625214 C179.11195211 400.23010913 179.01985436 414.54386594 178.91570187 428.85757446 C178.86559559 435.77960154 178.81915248 442.7016169 178.78135395 449.62372303 C178.74487546 456.30220036 178.69816106 462.98053403 178.64516544 469.65890408 C178.62661311 472.20859312 178.61150828 474.75830962 178.59988499 477.30803967 C178.58303723 480.87547809 178.55400494 484.44262265 178.52207661 488.0099535 C178.51883633 489.59599133 178.51883633 489.59599133 178.51553059 491.21407032 C178.5043671 492.18857136 178.49320362 493.1630724 178.48170185 494.16710377 C178.47617109 495.01054435 178.47064034 495.85398493 178.46494198 496.72298431 C178.01091089 500.90610223 176.88235535 503.49083817 173.82822895 506.38422108 C169.95643164 508.96541928 166.80758732 509.25899419 162.2136507 509.27466297 C161.20856968 509.28037312 160.20348866 509.28608326 159.16795063 509.29196644 C158.07124043 509.2930843 156.97453022 509.29420216 155.84458637 509.29535389 C154.68481785 509.30031879 153.52504932 509.3052837 152.3301363 509.31039906 C148.48965075 509.32501589 144.64920651 509.33182176 140.8086977 509.33734608 C138.81500264 509.34164415 136.82130758 509.34594274 134.8276127 509.35032058 C129.27246607 509.36212558 123.71732943 509.36966682 118.16217154 509.37311578 C110.98832442 509.37759477 103.814668 509.39513841 96.64087886 509.42411637 C91.0882892 509.44576362 85.53575308 509.45582168 79.98312169 509.4571569 C76.67019242 509.45820276 73.357483 509.46551902 70.04458904 509.48197651 C66.34626423 509.49903791 62.64840336 509.49715621 58.95005512 509.49066639 C57.85941761 509.49988117 56.7687801 509.50909595 55.64509296 509.51858997 C49.71689718 509.48601601 45.41990239 509.03427194 40.20322895 506.13422108 C36.80348906 502.50783186 36.07952273 499.18006783 36.06456375 494.31412697 C36.05908931 493.31538608 36.05361486 492.3166452 36.04797453 491.28763944 C36.04650737 489.63736683 36.04650737 489.63736683 36.04501057 487.95375538 C36.04007259 486.78737968 36.03513461 485.62100398 36.030047 484.41928357 C36.01731847 481.17661118 36.00904359 477.93396205 36.00262034 474.69127214 C35.9946224 471.19639216 35.98092253 467.70153406 35.96790791 464.20666981 C35.94613656 458.14985113 35.92799448 452.09303025 35.91230297 446.03619289 C35.88961034 437.27897535 35.86146667 428.52178204 35.83198369 419.76458504 C35.78430034 405.55732272 35.74103817 391.3500505 35.7005434 377.142766 C35.66119226 363.34002379 35.61976695 349.53729037 35.5755434 335.73456287 C35.57281913 334.8840573 35.57009486 334.03355174 35.56728803 333.15727327 C35.55360862 328.89062476 35.53988833 324.62397637 35.52614772 320.35732806 C35.41217127 284.94964396 35.3053645 249.54194123 35.20322895 214.13422108 C31.79186419 214.07262688 31.79186419 214.07262688 28.20322895 215.13422108 C24.40861296 220.79521608 24.78129847 226.82208371 24.82468891 233.45161915 C24.81789372 235.15095652 24.81789372 235.15095652 24.81096125 236.88462394 C24.79934305 240.67700593 24.80898222 244.46903483 24.81846333 248.26141834 C24.81603646 250.98175326 24.80905176 253.70207171 24.8021822 256.42239857 C24.78962978 262.27835709 24.7876379 268.13424178 24.79253864 273.99021053 C24.79935206 282.46342938 24.78682009 290.93653706 24.76903147 299.40973603 C24.74039674 313.16644427 24.72287243 326.9231405 24.71445942 340.67987537 C24.71369865 341.91417725 24.71369865 341.91417725 24.71292251 343.17341452 C24.70889035 349.8504591 24.70539628 356.52750394 24.70192528 363.20454884 C24.69886771 369.04267868 24.69559552 374.88080834 24.69199848 380.71893787 C24.69149587 381.54110417 24.69099325 382.36327046 24.6904754 383.21035088 C24.68173237 396.91767492 24.66129955 410.62495763 24.63251638 424.33225387 C24.61533599 432.78474777 24.60875173 441.23712477 24.61582243 449.68963384 C24.62000045 455.47939866 24.61365627 461.26908972 24.5990237 467.05883736 C24.59096307 470.39939807 24.58950136 473.73962372 24.59784603 477.08020687 C24.60619864 480.70158201 24.59626974 484.32246155 24.58176899 487.94380665 C24.59210989 489.52711783 24.59210989 489.52711783 24.6026597 491.14241511 C24.56029346 496.55919511 24.28900831 500.47130698 21.20322895 505.13422108 C17.25874024 508.82422665 13.46563109 509.25674976 8.2136507 509.27466297 C7.20856968 509.28037312 6.20348866 509.28608326 5.16795063 509.29196644 C4.07124043 509.2930843 2.97453022 509.29420216 1.84458637 509.29535389 C0.68481785 509.30031879 -0.47495068 509.3052837 -1.6698637 509.31039906 C-5.51034925 509.32501589 -9.35079349 509.33182176 -13.1913023 509.33734608 C-15.18499736 509.34164415 -17.17869242 509.34594274 -19.1723873 509.35032058 C-24.72753393 509.36212558 -30.28267057 509.36966682 -35.83782846 509.37311578 C-43.01167558 509.37759477 -50.185332 509.39513841 -57.35912114 509.42411637 C-62.9117108 509.44576362 -68.46424692 509.45582168 -74.01687831 509.4571569 C-77.32980758 509.45820276 -80.642517 509.46551902 -83.95541096 509.48197651 C-87.65373577 509.49903791 -91.35159664 509.49715621 -95.04994488 509.49066639 C-96.14058239 509.49988117 -97.2312199 509.50909595 -98.35490704 509.51858997 C-104.28310282 509.48601601 -108.58009761 509.03427194 -113.79677105 506.13422108 C-117.16309362 502.543477 -117.92054785 499.24439056 -117.93264294 494.42179775 C-117.93750068 493.44704074 -117.94235843 492.47228372 -117.94736338 491.46798861 C-117.94765936 490.39456316 -117.94795535 489.32113771 -117.94826031 488.21518421 C-117.95460892 486.50766438 -117.95460892 486.50766438 -117.9610858 484.7656492 C-117.97415705 480.93098569 -117.98014696 477.09634299 -117.98622417 473.26166248 C-117.99360731 470.52059577 -118.00249948 467.77953448 -118.0113554 465.03847218 C-118.02971429 459.12571817 -118.0445562 453.21296374 -118.05713177 447.30019474 C-118.07541685 438.74583258 -118.1000821 430.19149783 -118.12650567 421.63715737 C-118.16931421 407.75174735 -118.20842405 393.86632977 -118.24452496 379.98090076 C-118.24776916 378.73384057 -118.24776916 378.73384057 -118.2510789 377.46158724 C-118.26640582 371.56079876 -118.28160186 365.66000996 -118.29677105 359.75922108 C-118.31409255 353.02224167 -118.33147822 346.28526243 -118.34901714 339.54828358 C-118.35225545 338.30364871 -118.35225545 338.30364871 -118.35555917 337.0338697 C-118.391663 323.20351797 -118.43161719 309.37317993 -118.47431993 295.54284704 C-118.50048033 287.00927523 -118.52313846 278.47570758 -118.54130352 269.94211493 C-118.55396794 264.09533784 -118.57009317 258.24857699 -118.58895266 252.40181662 C-118.59971215 249.02707716 -118.60829132 245.65236849 -118.61364841 242.27761364 C-118.61968109 238.62078779 -118.63172283 234.96402976 -118.64528179 231.30722523 C-118.64557778 230.23826122 -118.64587377 229.16929721 -118.64617872 228.06794035 C-118.65103647 227.08796784 -118.65589421 226.10799533 -118.66089916 225.09832668 C-118.66407312 223.83231025 -118.66407312 223.83231025 -118.66731119 222.54071772 C-118.80440178 219.99237537 -119.23847116 217.62153255 -119.79677105 215.13422108 C-121.77677105 215.13422108 -123.75677105 215.13422108 -125.79677105 215.13422108 C-130.9963237 223.49871882 -129.94487732 234.09835651 -129.93480206 243.6356554 C-129.93762334 244.74000183 -129.94044461 245.84434826 -129.94335139 246.98215973 C-129.9516327 250.65378512 -129.95303 254.32538011 -129.95448589 257.99701405 C-129.95915856 260.64073864 -129.96423697 263.28445928 -129.96988201 265.92818165 C-129.98135889 271.60616232 -129.9896281 277.28414009 -129.99600124 282.96212864 C-130.0063661 291.93692173 -130.02693646 300.91167832 -130.0491209 309.88644886 C-130.05659857 312.96148193 -130.06401249 316.03651515 -130.07140827 319.11154842 C-130.07418412 320.26389906 -130.07418412 320.26389906 -130.07701605 321.4395295 C-130.09790367 330.16588151 -130.11675416 338.89223748 -130.13466167 347.61859608 C-130.13629986 348.41553938 -130.13793804 349.21248269 -130.13962586 350.03357579 C-130.16595864 362.97224522 -130.18458019 375.91091749 -130.20125358 388.84960245 C-130.21866558 402.14686436 -130.24749395 415.44407022 -130.28614295 428.74128735 C-130.30954053 436.93761104 -130.32353728 445.13384339 -130.32547058 453.33020075 C-130.32782644 459.60283393 -130.34567477 465.87533458 -130.36933994 472.14792156 C-130.37655428 474.7226879 -130.37862364 477.29747443 -130.37523746 479.87224865 C-130.37136025 483.37992819 -130.38574085 486.88706963 -130.40477276 490.39468861 C-130.39924306 491.41928617 -130.39371337 492.44388374 -130.3880161 493.49952972 C-130.47093297 502.31856176 -130.47093297 502.31856176 -133.79677105 506.13422108 C-140.29852502 509.49945586 -146.30162866 509.56324529 -153.51771832 509.52240467 C-154.66831738 509.52766163 -155.81891644 509.53291859 -157.00438213 509.53833485 C-160.79078708 509.55149069 -164.5767684 509.54281259 -168.3631773 509.53265858 C-171.00298423 509.53468043 -173.64279061 509.5375928 -176.28259563 509.54135609 C-181.80779354 509.54680085 -187.33287079 509.53965501 -192.85805035 509.52533436 C-199.23269006 509.50900211 -205.60704196 509.51430549 -211.98167473 509.53081357 C-218.13264833 509.54610066 -224.28349499 509.54444134 -230.43447971 509.53566837 C-233.04394286 509.53366925 -235.65341338 509.53611551 -238.26286793 509.54310703 C-241.9105153 509.55073658 -245.5576119 509.53909559 -249.20521832 509.52240467 C-250.28022091 509.52847736 -251.3552235 509.53455006 -252.46280193 509.54080677 C-259.12616115 509.48440136 -264.30309373 508.92916294 -269.67177105 504.63422108 C-271.96003406 501.58320373 -271.92328045 498.6509974 -271.92819881 494.992383 C-271.93203996 493.9217579 -271.9358811 492.8511328 -271.93983865 491.74806452 C-271.93897217 490.56746029 -271.93810568 489.38685607 -271.93721294 488.17047596 C-271.94018407 486.91950076 -271.94315519 485.66852555 -271.94621634 484.37964201 C-271.95429465 480.90001132 -271.9560764 477.42040124 -271.95681381 473.94076228 C-271.95866317 470.18989968 -271.9662104 466.43904782 -271.97294903 462.68819141 C-271.98654354 454.47867893 -271.99256014 446.26917133 -271.99695969 438.05964947 C-271.99972287 432.92815898 -272.00396063 427.79667038 -272.00846386 422.66518116 C-272.020663 408.44561093 -272.03095777 394.22604221 -272.03433895 380.00646687 C-272.03455852 379.09586003 -272.03477808 378.1852532 -272.0350043 377.24705222 C-272.03533172 375.87791087 -272.03533172 375.87791087 -272.03566575 374.4811101 C-272.03610921 372.6315937 -272.03655577 370.78207731 -272.03700542 368.93256092 C-272.03722685 368.01514136 -272.03744828 367.0977218 -272.03767642 366.15250164 C-272.04161557 351.32159381 -272.05903964 336.49073539 -272.08236495 321.6598466 C-272.1061435 306.41692066 -272.11854392 291.1740194 -272.11970687 275.93107462 C-272.12062052 267.37966793 -272.12629338 258.82832543 -272.14452648 250.27693653 C-272.16001615 242.98651487 -272.16499652 235.69617718 -272.15678838 228.40574217 C-272.1529116 224.69301568 -272.15366328 220.98045781 -272.16784573 217.26775265 C-272.31629026 176.00307437 -263.97670737 138.40984959 -234.56239605 107.87250233 C-209.09549135 82.65738905 -175.06563593 72.04595434 -139.79677105 72.13422108 C-108.67670103 73.05811643 -79.73148358 84.79467325 -57.79677105 107.13422108 C-49.25998851 116.74456869 -49.25998851 116.74456869 -47.79677105 121.13422108 C-45.15219649 118.53764243 -42.57265442 115.91972797 -40.1053648 113.15375233 C-27.1381058 98.61887374 -12.73827714 87.78578337 5.20322895 80.13422108 C2.74681748 75.82062337 0.28808487 71.50835502 -2.17177105 67.19672108 C-2.53514568 66.5595113 -2.89852032 65.92230152 -3.2729063 65.26578236 C-8.06526816 56.86502114 -12.88204483 48.48195205 -17.87636089 40.19891834 C-22.74603792 32.04496513 -23.79978496 25.6364581 -22.79677105 16.13422108 C-20.63208859 9.16696405 -15.99264801 4.76360507 -9.79677105 1.13422108 C-6.33445675 -0.01988369 -3.65438201 0.00523258 0 0 Z M-232.29677105 120.75922108 C-257.41065258 149.46713866 -262.30802703 183.27515547 -262.14496791 220.20962274 C-262.13183751 223.950972 -262.13640883 227.69230895 -262.13867474 231.43367481 C-262.14023689 237.89350307 -262.13093954 244.35323941 -262.11396122 250.81304455 C-262.08943057 260.15246712 -262.08175168 269.4918459 -262.07799724 278.8312972 C-262.07145464 293.98918169 -262.05155341 309.14701735 -262.02308941 324.30487537 C-261.9954918 339.01678698 -261.97428624 353.72868525 -261.96156597 368.44061756 C-261.9607778 369.34964646 -261.95998963 370.25867536 -261.95917758 371.19525059 C-261.95526206 375.75623426 -261.95147103 380.31721802 -261.94774187 384.87820184 C-261.91671428 422.63025164 -261.86144841 460.38221099 -261.79677105 498.13422108 C-221.86677105 498.13422108 -181.93677105 498.13422108 -140.79677105 498.13422108 C-140.74778667 478.62683826 -140.6988023 459.11945545 -140.64833355 439.02093983 C-140.61295532 426.67523239 -140.57709281 414.32952923 -140.53895855 401.98383045 C-140.51895144 395.49839796 -140.49906714 389.01296512 -140.47938824 382.52753162 C-140.4769168 381.71472254 -140.47444536 380.90191347 -140.47189903 380.06447381 C-140.43221291 366.95360399 -140.39945604 353.8427256 -140.36927123 340.73183086 C-140.33812357 327.26991429 -140.29950005 313.80803404 -140.25398099 300.34615833 C-140.22614256 292.04388884 -140.20408945 283.74164582 -140.18950854 275.4393423 C-140.17894151 269.74104918 -140.16109284 264.0428074 -140.13760401 258.34455302 C-140.12427797 255.06021427 -140.11516208 251.77596047 -140.11255741 248.49159336 C-140.10922013 244.92202722 -140.09370267 241.35270812 -140.07524395 237.78319263 C-140.07717868 236.75689595 -140.07911342 235.73059927 -140.08110678 234.67320269 C-140.00451521 224.72788003 -139.41403079 215.02849586 -132.79677105 207.13422108 C-129.03017116 203.6904726 -125.15035959 203.61489649 -120.23427105 203.79047108 C-116.50487507 204.31641154 -114.51030302 205.55305652 -111.79677105 208.13422108 C-107.58644389 215.97414062 -107.64655033 223.70188094 -107.63855267 232.37173939 C-107.63361469 233.50800994 -107.62867671 234.64428049 -107.6235891 235.81498349 C-107.60822476 239.62435679 -107.5998563 243.43371325 -107.59144878 247.2431078 C-107.58241421 249.9730259 -107.5719024 252.70293784 -107.56145 255.43285084 C-107.53971596 261.31118413 -107.52156027 267.1895197 -107.50584507 273.06787205 C-107.48311843 281.56694917 -107.45497949 290.06600161 -107.42552579 298.56505777 C-107.37788412 312.35470286 -107.33461067 326.14435806 -107.2940855 339.93402576 C-107.25471314 353.32823949 -107.21328275 366.72244424 -107.1690855 380.11664295 C-107.16636123 380.94246439 -107.16363696 381.76828582 -107.16083013 382.61913215 C-107.14715037 386.76209619 -107.13343015 390.9050601 -107.11968982 395.04802394 C-107.00577885 429.41007203 -106.89976259 463.77213809 -106.79677105 498.13422108 C-67.19677105 498.13422108 -27.59677105 498.13422108 13.20322895 498.13422108 C13.24061176 478.3986742 13.27799458 458.66312733 13.3165102 438.32953358 C13.34677845 425.8425477 13.37777845 413.35557012 13.41221333 400.86859608 C13.43026289 394.30935189 13.44812677 387.75010724 13.46568012 381.1908617 C13.46788781 380.36879207 13.4700955 379.54672244 13.47237009 378.6997416 C13.50771889 365.4362582 13.53258922 352.17277485 13.55357597 338.90926184 C13.57535535 325.29252648 13.60842606 311.67585214 13.65193051 298.0591687 C13.67841043 289.66014686 13.69613273 281.26120101 13.70257499 272.86213951 C13.70784009 267.0988915 13.72409464 261.33573903 13.74889461 255.57254227 C13.76287148 252.24977783 13.77046314 248.92732965 13.76823711 245.60451412 C13.76658269 241.99508681 13.78329931 238.38618489 13.80450153 234.77682972 C13.79723017 233.21550617 13.79723017 233.21550617 13.78981191 231.62264073 C13.87630034 222.67938998 15.34741451 214.19564437 21.20322895 207.13422108 C25.0826708 203.71118415 28.80460472 203.72090619 33.76572895 203.93500233 C39.47047582 204.40125568 39.47047582 204.40125568 42.20322895 206.13422108 C46.52442639 215.18491808 46.35224887 225.69133069 46.36144733 235.49835682 C46.36638531 236.62408556 46.37132329 237.74981431 46.3764109 238.90965605 C46.39173525 242.67135858 46.4001328 246.43304411 46.40855122 250.19476795 C46.41813372 252.89542351 46.4281013 255.5960751 46.43855 258.29672718 C46.46025881 264.10572576 46.47842361 269.91472666 46.49415493 275.72374439 C46.51690471 284.12252232 46.54504033 292.52127548 46.57447421 300.92003232 C46.62208765 314.54773272 46.66536868 328.17544327 46.7059145 341.80316639 C46.74530127 355.03820047 46.78674622 368.27322549 46.8309145 381.50824451 C46.833664 382.33289636 46.83641351 383.15754821 46.83924633 384.00718951 C46.86076654 390.45687865 46.88240579 396.90656739 46.90408266 403.35625601 C47.0102324 434.94889274 47.10600165 466.54155319 47.20322895 498.13422108 C86.80322895 498.13422108 126.40322895 498.13422108 167.20322895 498.13422108 C167.26945996 459.34764476 167.32481595 420.56112211 167.35642494 381.77450536 C167.36017672 377.18746063 167.36405972 372.60041602 167.36802387 368.01337147 C167.3688108 367.10023663 167.36959773 366.18710179 167.37040851 365.2462962 C167.38343531 350.49280003 167.40707402 335.7393392 167.43468734 320.98586395 C167.46281761 305.82891808 167.47942126 290.67199062 167.48549443 275.51501971 C167.48959513 266.17474744 167.50251067 256.83457509 167.52697835 247.4943336 C167.54292981 241.07508527 167.54760821 234.65588802 167.54373308 228.23662134 C167.54182605 224.54213804 167.54458963 220.84782839 167.56084538 217.15337658 C167.72747808 177.27535631 160.64415355 138.81959182 131.6680727 109.57562733 C120.27454941 98.86824331 106.70511746 91.92852081 91.82822895 87.38422108 C91.19384907 87.18554432 90.55946918 86.98686756 89.90586567 86.7821703 C77.92817442 83.32826229 65.40587253 82.74198752 53.01572895 82.75922108 C52.34613148 82.7597649 51.676534 82.76030872 50.9866457 82.76086903 C39.34595017 82.8040422 28.38874918 83.8433166 17.20322895 87.13422108 C16.50246235 87.33789295 15.80169575 87.54156483 15.07969379 87.75140858 C-10.41452454 95.49467245 -31.53489812 115.0037286 -45.79677105 137.13422108 C-45.79677105 137.79422108 -45.79677105 138.45422108 -45.79677105 139.13422108 C-49.04691414 136.10897628 -51.37402703 132.90884212 -53.79677105 129.19672108 C-69.15850145 106.49327217 -91.80807487 90.41129329 -118.8150816 84.72577381 C-161.50088851 76.77473156 -202.54101116 89.22855621 -232.29677105 120.75922108 Z " fill="#8B4E06" transform="translate(327.7967710494995,130.86577892303467)"/>
</svg>
