<?xml version="1.0" encoding="UTF-8"?>
<svg version="1.1" xmlns="http://www.w3.org/2000/svg" width="1366" height="768">
<path d="M0 0 C6.20257952 4.80017535 11.58135958 10.22168716 15.57421875 16.9921875 C18.66568659 13.99732803 21.48713708 10.90954101 24.26171875 7.6171875 C32.85052695 -2.0492427 44.25579017 -8.33934134 57.30639648 -9.18481445 C77.41005781 -9.60222028 93.69169816 -9.03169485 109.32421875 5.1796875 C123.88711339 20.86011842 125.90840256 42.31245952 125.80126953 62.6965332 C125.8007039 64.22552483 125.80102493 65.75451699 125.80215454 67.2835083 C125.80272314 71.39216044 125.79104965 75.50069334 125.77700663 79.60931802 C125.76441614 83.9187535 125.76332226 88.22819239 125.76095581 92.53764343 C125.7547653 100.67936744 125.73838771 108.82103708 125.71825683 116.96273726 C125.69582178 126.23975904 125.68488536 135.51678355 125.67486596 144.79382575 C125.65401905 163.85998332 125.61737355 182.92606646 125.57421875 201.9921875 C105.11421875 201.9921875 84.65421875 201.9921875 63.57421875 201.9921875 C63.52523437 191.96714844 63.47625 181.94210937 63.42578125 171.61328125 C63.39039887 165.26496529 63.35452169 158.91665854 63.31640625 152.56835938 C63.25599056 142.49049974 63.19760402 132.41265741 63.15234375 122.3347168 C63.11937115 114.99489881 63.07951088 107.65515582 63.03142869 100.31542069 C63.00621602 96.4301929 62.98441938 92.54501454 62.97087479 88.6597271 C62.95800682 84.9997779 62.93590179 81.33999864 62.90683556 77.68014336 C62.89349985 75.70269934 62.88984745 73.72519737 62.88652039 71.74771118 C63.27621872 62.28933346 63.27621872 62.28933346 59.57421875 53.9921875 C54.84770698 53.49737838 54.84770698 53.49737838 50.69921875 55.3671875 C48.46400683 58.59582694 48.43993639 60.75653745 48.41600037 64.66152954 C48.40621155 65.8675029 48.39642273 67.07347626 48.38633728 68.31599426 C48.38043274 69.65939291 48.37462232 71.00279198 48.36889648 72.34619141 C48.35932032 73.75533843 48.3493104 75.16448257 48.33889771 76.57362366 C48.31181418 80.40600918 48.29082332 84.23840707 48.27089572 88.07083559 C48.2490574 92.07340032 48.22165819 96.0759268 48.19483948 100.07846069 C48.14488341 107.66093178 48.09995541 115.24342407 48.05681711 122.82593668 C47.99824769 133.06999796 47.93194519 143.31400896 47.86606693 153.55802536 C47.76244667 169.70271222 47.66918784 185.84744206 47.57421875 201.9921875 C26.78421875 201.9921875 5.99421875 201.9921875 -15.42578125 201.9921875 C-15.47476563 191.64359375 -15.52375 181.295 -15.57421875 170.6328125 C-15.60959158 164.08853316 -15.64546247 157.54426288 -15.68359375 151 C-15.74406413 140.60581496 -15.80246326 130.21164701 -15.84765625 119.81738281 C-15.8805765 112.24796603 -15.9204079 104.67862273 -15.96857131 97.10928702 C-15.99383598 93.10063474 -16.01561735 89.0920312 -16.02912521 85.08332062 C-16.04194588 81.31093604 -16.06400026 77.53871863 -16.09316444 73.76642609 C-16.10224019 72.38132534 -16.10793045 70.99619767 -16.10999489 69.61106873 C-16.11331726 67.7206753 -16.12997051 65.83031928 -16.14730835 63.94000244 C-16.15283911 62.8817841 -16.15836987 61.82356575 -16.16406822 60.73328018 C-16.42604533 57.98942162 -17.01363239 56.3322632 -18.42578125 53.9921875 C-23.84918831 53.35613774 -23.84918831 53.35613774 -28.36328125 55.6796875 C-30.3400389 59.98204239 -30.55436351 64.18369686 -30.58399963 68.87043762 C-30.59868286 70.63509872 -30.59868286 70.63509872 -30.61366272 72.43540955 C-30.61941818 73.71718582 -30.62517365 74.9989621 -30.63110352 76.31958008 C-30.64068886 77.68976126 -30.65069933 79.05993953 -30.66110229 80.43011475 C-30.68808633 84.14249148 -30.70913099 87.85488085 -30.72910428 91.56730103 C-30.75100404 95.44973174 -30.77837318 99.33212381 -30.80516052 103.21452332 C-30.85503352 110.56314885 -30.89999232 117.9117959 -30.94318289 125.26046342 C-31.0018441 135.19301965 -31.06810195 145.12552503 -31.13393307 155.05803585 C-31.23742338 170.70271878 -31.3307686 186.34744547 -31.42578125 201.9921875 C-51.88578125 201.9921875 -72.34578125 201.9921875 -93.42578125 201.9921875 C-93.51631342 181.53748873 -93.58989764 161.08295389 -93.63302994 140.62810516 C-93.65359538 131.12911267 -93.68159994 121.63025413 -93.72753906 112.13134766 C-93.76759213 103.84551188 -93.79325772 95.55977319 -93.80213523 87.27384329 C-93.80731893 82.89244652 -93.81937468 78.51132734 -93.84870148 74.13002014 C-93.87616366 69.99315829 -93.88416519 65.85668427 -93.87821198 61.71973991 C-93.87929863 60.21386025 -93.88706716 58.70796551 -93.90260315 57.2021656 C-94.08544086 38.54119936 -89.91728212 21.09746234 -76.80639648 7.15722656 C-57.20068054 -12.59654396 -22.90640971 -15.58304661 0 0 Z " fill="#F9CE07" transform="translate(665.42578125,179.0078125)"/>
<path d="M0 0 C6.20257952 4.80017535 11.58135958 10.22168716 15.57421875 16.9921875 C18.66568659 13.99732803 21.48713708 10.90954101 24.26171875 7.6171875 C32.85052695 -2.0492427 44.25579017 -8.33934134 57.30639648 -9.18481445 C77.41005781 -9.60222028 93.69169816 -9.03169485 109.32421875 5.1796875 C123.88711339 20.86011842 125.90840256 42.31245952 125.80126953 62.6965332 C125.8007039 64.22552483 125.80102493 65.75451699 125.80215454 67.2835083 C125.80272314 71.39216044 125.79104965 75.50069334 125.77700663 79.60931802 C125.76441614 83.9187535 125.76332226 88.22819239 125.76095581 92.53764343 C125.7547653 100.67936744 125.73838771 108.82103708 125.71825683 116.96273726 C125.69582178 126.23975904 125.68488536 135.51678355 125.67486596 144.79382575 C125.65401905 163.85998332 125.61737355 182.92606646 125.57421875 201.9921875 C105.11421875 201.9921875 84.65421875 201.9921875 63.57421875 201.9921875 C63.52523437 191.96714844 63.47625 181.94210937 63.42578125 171.61328125 C63.39039887 165.26496529 63.35452169 158.91665854 63.31640625 152.56835938 C63.25599056 142.49049974 63.19760402 132.41265741 63.15234375 122.3347168 C63.11937115 114.99489881 63.07951088 107.65515582 63.03142869 100.31542069 C63.00621602 96.4301929 62.98441938 92.54501454 62.97087479 88.6597271 C62.95800682 84.9997779 62.93590179 81.33999864 62.90683556 77.68014336 C62.89349985 75.70269934 62.88984745 73.72519737 62.88652039 71.74771118 C63.27621872 62.28933346 63.27621872 62.28933346 59.57421875 53.9921875 C54.84770698 53.49737838 54.84770698 53.49737838 50.69921875 55.3671875 C48.46400683 58.59582694 48.43993639 60.75653745 48.41600037 64.66152954 C48.40621155 65.8675029 48.39642273 67.07347626 48.38633728 68.31599426 C48.38043274 69.65939291 48.37462232 71.00279198 48.36889648 72.34619141 C48.35932032 73.75533843 48.3493104 75.16448257 48.33889771 76.57362366 C48.31181418 80.40600918 48.29082332 84.23840707 48.27089572 88.07083559 C48.2490574 92.07340032 48.22165819 96.0759268 48.19483948 100.07846069 C48.14488341 107.66093178 48.09995541 115.24342407 48.05681711 122.82593668 C47.99824769 133.06999796 47.93194519 143.31400896 47.86606693 153.55802536 C47.76244667 169.70271222 47.66918784 185.84744206 47.57421875 201.9921875 C26.78421875 201.9921875 5.99421875 201.9921875 -15.42578125 201.9921875 C-15.47476563 191.64359375 -15.52375 181.295 -15.57421875 170.6328125 C-15.60959158 164.08853316 -15.64546247 157.54426288 -15.68359375 151 C-15.74406413 140.60581496 -15.80246326 130.21164701 -15.84765625 119.81738281 C-15.8805765 112.24796603 -15.9204079 104.67862273 -15.96857131 97.10928702 C-15.99383598 93.10063474 -16.01561735 89.0920312 -16.02912521 85.08332062 C-16.04194588 81.31093604 -16.06400026 77.53871863 -16.09316444 73.76642609 C-16.10224019 72.38132534 -16.10793045 70.99619767 -16.10999489 69.61106873 C-16.11331726 67.7206753 -16.12997051 65.83031928 -16.14730835 63.94000244 C-16.15283911 62.8817841 -16.15836987 61.82356575 -16.16406822 60.73328018 C-16.42604533 57.98942162 -17.01363239 56.3322632 -18.42578125 53.9921875 C-23.84918831 53.35613774 -23.84918831 53.35613774 -28.36328125 55.6796875 C-30.3400389 59.98204239 -30.55436351 64.18369686 -30.58399963 68.87043762 C-30.59868286 70.63509872 -30.59868286 70.63509872 -30.61366272 72.43540955 C-30.61941818 73.71718582 -30.62517365 74.9989621 -30.63110352 76.31958008 C-30.64068886 77.68976126 -30.65069933 79.05993953 -30.66110229 80.43011475 C-30.68808633 84.14249148 -30.70913099 87.85488085 -30.72910428 91.56730103 C-30.75100404 95.44973174 -30.77837318 99.33212381 -30.80516052 103.21452332 C-30.85503352 110.56314885 -30.89999232 117.9117959 -30.94318289 125.26046342 C-31.0018441 135.19301965 -31.06810195 145.12552503 -31.13393307 155.05803585 C-31.23742338 170.70271878 -31.3307686 186.34744547 -31.42578125 201.9921875 C-51.88578125 201.9921875 -72.34578125 201.9921875 -93.42578125 201.9921875 C-93.51631342 181.53748873 -93.58989764 161.08295389 -93.63302994 140.62810516 C-93.65359538 131.12911267 -93.68159994 121.63025413 -93.72753906 112.13134766 C-93.76759213 103.84551188 -93.79325772 95.55977319 -93.80213523 87.27384329 C-93.80731893 82.89244652 -93.81937468 78.51132734 -93.84870148 74.13002014 C-93.87616366 69.99315829 -93.88416519 65.85668427 -93.87821198 61.71973991 C-93.87929863 60.21386025 -93.88706716 58.70796551 -93.90260315 57.2021656 C-94.08544086 38.54119936 -89.91728212 21.09746234 -76.80639648 7.15722656 C-57.20068054 -12.59654396 -22.90640971 -15.58304661 0 0 Z " fill="#F9CE07" transform="translate(182.42578125,179.0078125)"/>
<path d="M0 0 C1.1240625 0.36222656 2.248125 0.72445312 3.40625 1.09765625 C16.41450769 5.66603246 27.80730676 12.76195383 38 22 C39.46566406 23.32451172 39.46566406 23.32451172 40.9609375 24.67578125 C59.96273654 42.44771018 72.9251906 67.54657144 74.12548828 93.73828125 C75.16622017 126.33044774 67.53071473 154.10980784 44.8203125 178.4609375 C38.73387392 184.80581784 32.50989422 190.36498716 25 195 C24.113125 195.58136719 23.22625 196.16273438 22.3125 196.76171875 C16.64296382 200.31288203 10.90091773 202.99839995 4.625 205.25 C3.97845459 205.48404541 3.33190918 205.71809082 2.66577148 205.95922852 C-8.69072233 209.82506267 -19.93079752 211.50337604 -31.90405273 211.39111328 C-33.93346589 211.37503197 -35.96088083 211.39106912 -37.99023438 211.41015625 C-67.24372179 211.45760484 -92.3240061 199.06044689 -113.1875 179.25 C-135.315323 156.1774752 -143.78141934 128.44474916 -143.3125 96.859375 C-142.38711675 69.05160824 -130.6441227 45.31515414 -111 26 C-110.17757812 25.17886719 -109.35515625 24.35773438 -108.5078125 23.51171875 C-80.98839699 -2.60916909 -35.95663382 -12.34996995 0 0 Z M-69.03125 73.421875 C-78.25097103 86.00132488 -80.20032442 97.71630518 -79 113 C-76.66048387 124.56389401 -69.05440341 134.67678753 -60 142 C-47.88213146 149.27072112 -35.60195633 150.96517963 -21.69140625 148.38671875 C-8.96996204 144.19547371 0.21067557 135.13313031 6.34375 123.4375 C11.21961719 112.84990266 12.21815445 99.13192698 8.4375 88 C2.04802631 73.56203137 -6.5303685 65.15992884 -21 59 C-38.50945114 53.92013884 -57.38054392 59.53064852 -69.03125 73.421875 Z " fill="#F9CE07" transform="translate(475,174)"/>
<path d="M0 0 C0.99578568 0.00131424 0.99578568 0.00131424 2.01168823 0.00265503 C21.48269391 0.08745063 37.75747209 4.24434721 52.23046875 18.1328125 C69.17148456 35.84527712 72.73500839 59.55831182 72.60205078 83.11303711 C72.60148461 84.51424654 72.60180722 85.91545656 72.60293579 87.31666565 C72.6035023 91.06777781 72.59186374 94.81875826 72.57778788 98.56984019 C72.56516154 102.50957085 72.56410075 106.44930557 72.56173706 110.38905334 C72.55555687 117.8259356 72.53919366 125.26275803 72.51903808 132.69961411 C72.49235736 142.76570218 72.48167842 152.83180697 72.47003365 162.89792156 C72.45130997 178.72365906 72.41144149 194.5492704 72.375 210.375 C51.915 210.375 31.455 210.375 10.375 210.375 C10.33761719 200.81789063 10.30023437 191.26078125 10.26171875 181.4140625 C10.23143633 175.35285018 10.20040767 169.29165684 10.16601562 163.23046875 C10.11158762 153.61378721 10.06017213 143.99715834 10.02856445 134.38037109 C10.00552769 127.37559796 9.9720667 120.37096376 9.92629844 113.36630094 C9.90244241 109.6603647 9.88366392 105.9545654 9.87738609 102.24855423 C9.87016696 98.10251671 9.8396663 93.95695327 9.80737305 89.81103516 C9.80880814 88.59398895 9.81024323 87.37694275 9.8117218 86.12301636 C9.73745451 79.36308187 9.52622299 72.50871489 6.375 66.375 C2.55455437 62.97007175 -0.23016206 62.85506096 -5.21484375 63.03125 C-8.77147651 63.53851691 -10.35510693 64.60856782 -12.625 67.375 C-15.21426335 73.98809343 -14.93167579 80.63028857 -14.94384766 87.65405273 C-14.95315709 88.99497576 -14.96332726 90.33589305 -14.97428894 91.67680359 C-15.00148876 95.30022832 -15.01670845 98.9236144 -15.02971697 102.54711413 C-15.04539157 106.34013452 -15.0721679 110.13307646 -15.0977478 113.92604065 C-15.14445916 121.1010529 -15.18124015 128.27608002 -15.21442068 135.45116621 C-15.2526962 143.62292659 -15.30209207 151.79460805 -15.35240483 159.9663018 C-15.45561096 176.76914444 -15.54490801 193.57203095 -15.625 210.375 C-23.0976604 211.29270997 -30.45303562 211.50841811 -37.9765625 211.47265625 C-39.11660736 211.4712413 -40.25665222 211.46982635 -41.4312439 211.46836853 C-45.03752373 211.46281479 -48.64373924 211.45027107 -52.25 211.4375 C-54.70963451 211.43247902 -57.16927001 211.42791716 -59.62890625 211.42382812 C-65.62762576 211.41286055 -71.62630828 211.39616914 -77.625 211.375 C-77.69532638 192.74570534 -77.74810327 174.11643791 -77.78043652 155.48703766 C-77.7958537 146.83555136 -77.81684374 138.18414793 -77.85131836 129.53271484 C-77.88137946 121.98520742 -77.90061234 114.43776005 -77.90726548 106.89019442 C-77.91114968 102.9000838 -77.92016829 98.91014488 -77.94219017 94.92008972 C-77.96282062 91.15097441 -77.96878131 87.38209863 -77.96432304 83.61293221 C-77.96551928 81.59779397 -77.98152042 79.58268075 -77.9982605 77.56761169 C-77.92586586 55.76409578 -71.87742717 36.31526442 -56.9375 20.125 C-41.00367507 5.20084318 -21.40515734 -0.03089543 0 0 Z " fill="#F9CE07" transform="translate(1049.625,169.625)"/>
<path d="M0 0 C1.19507733 0.68217715 2.39089189 1.36306423 3.58740234 2.04272461 C7.21664763 4.11125968 10.82835694 6.20914323 14.4375 8.3125 C15.4908252 8.92448242 16.54415039 9.53646484 17.62939453 10.16699219 C21.59593566 12.47393813 25.55950784 14.78574107 29.51586914 17.11010742 C36.60575773 21.27096642 43.75414999 25.31543904 50.9375 29.3125 C59.11940842 33.86519292 67.2406357 38.50498069 75.3125 43.25 C83.78716175 48.22984077 92.33171052 53.06299742 100.9375 57.8125 C109.86553902 62.74411752 118.74682913 67.74488374 127.5625 72.875 C128.52736328 73.43445313 129.49222656 73.99390625 130.48632812 74.5703125 C150.22731429 86.11718954 150.22731429 86.11718954 152.375 93.5625 C152.45612825 98.43019505 151.73812027 102.01751238 149.4375 106.3125 C143.95129269 111.69308678 136.61689661 115.16843469 129.9375 118.8125 C121.37411699 123.54303785 112.87008462 128.35248504 104.4375 133.3125 C95.28883192 138.68524143 86.06344934 143.90327602 76.79296875 149.0625 C69.62395936 153.06214659 62.51666232 157.15612972 55.4375 161.3125 C46.39323713 166.62057522 37.28227443 171.79348249 28.12036133 176.89550781 C18.52858362 182.24255757 8.99586262 187.69004806 -0.52636719 193.15966797 C-1.64817383 193.80307129 -2.76998047 194.44647461 -3.92578125 195.109375 C-5.41525269 195.96547363 -5.41525269 195.96547363 -6.93481445 196.83886719 C-13.06335223 200.27581358 -17.47419285 201.15487853 -24.5625 200.3125 C-28.95076427 198.11836786 -32.50188856 195.42784353 -34.12794113 190.65162468 C-34.73228125 187.39860885 -34.70702095 184.18272052 -34.70294189 180.88650513 C-34.70591302 180.13594719 -34.70888414 179.38538925 -34.7119453 178.61208713 C-34.72062074 176.09570956 -34.72213956 173.57937962 -34.72363281 171.06298828 C-34.72826174 169.25934752 -34.7332865 167.45570774 -34.73867798 165.65206909 C-34.75179529 160.75123331 -34.75824543 155.85041123 -34.76268864 150.94956064 C-34.76561995 147.88808285 -34.76972484 144.82660881 -34.77419281 141.7651329 C-34.7878649 132.18739086 -34.79753343 122.60965737 -34.8013947 113.03190625 C-34.80587731 101.9737134 -34.82343584 90.91564404 -34.8523953 79.85748875 C-34.87400222 71.31046104 -34.88409843 62.76346811 -34.88543582 54.21641338 C-34.8864844 49.111117 -34.89240364 44.00593674 -34.91025543 38.9006691 C-34.92671936 34.09899695 -34.92889977 29.29752846 -34.92011642 24.49583817 C-34.9193452 22.73421178 -34.92370004 20.97257452 -34.93357468 19.21097565 C-34.94627215 16.80456158 -34.94042972 14.39887123 -34.92999268 11.99246216 C-34.93804908 11.2967332 -34.94610548 10.60100424 -34.95440602 9.88419259 C-34.90130014 4.64258785 -33.61137999 0.61270927 -30.09765625 -3.33203125 C-19.70439227 -11.57496475 -10.12169686 -5.90298759 0 0 Z " fill="#F8CD06" transform="translate(130.5625,395.6875)"/>
<path d="M0 0 C0.6737265 -0.00014603 1.347453 -0.00029205 2.04159546 -0.0004425 C4.25457042 0.00025067 6.46745978 0.00801503 8.68041992 0.01586914 C10.22027032 0.01773544 11.76012132 0.01915834 13.29997253 0.02015686 C17.34249526 0.02396537 21.38498177 0.03378137 25.42749023 0.04486084 C30.28338625 0.05691465 35.1392944 0.06148514 39.99520111 0.06731415 C47.36295545 0.07699407 54.73063039 0.09616225 62.09838867 0.11352539 C62.09838867 19.91352539 62.09838867 39.71352539 62.09838867 60.11352539 C38.97338867 60.42602539 38.97338867 60.42602539 31.70336914 60.50146484 C29.79075178 60.53376563 27.87815213 60.56714089 25.96557617 60.60180664 C24.98145752 60.60805054 23.99733887 60.61429443 22.98339844 60.62072754 C17.64912378 60.73228081 13.66928314 61.0365376 9.09838867 64.11352539 C8.06091159 66.20631259 8.06091159 66.20631259 8.03588867 68.55102539 C7.96241211 69.31286133 7.88893555 70.07469727 7.81323242 70.85961914 C8.18600094 73.80602233 9.06126297 74.9603884 11.09838867 77.11352539 C20.67308784 80.18808113 31.9181782 79.53345202 41.91088867 79.73852539 C47.25276367 79.86227539 52.59463867 79.98602539 58.09838867 80.11352539 C58.09838867 95.62352539 58.09838867 111.13352539 58.09838867 127.11352539 C52.87961914 127.13479492 52.87961914 127.13479492 47.55541992 127.15649414 C44.18284416 127.18711476 40.8104654 127.22620371 37.43798828 127.26611328 C35.09561132 127.28929871 32.75313003 127.30369025 30.41064453 127.30908203 C27.04157451 127.31836715 23.67414676 127.35935109 20.30541992 127.40649414 C19.25941116 127.40256149 18.2134024 127.39862885 17.13569641 127.39457703 C11.08593569 127.50763829 11.08593569 127.50763829 5.92358398 130.50854492 C3.92332554 133.36338141 3.52306985 134.40720198 4.03588867 137.80102539 C4.12741211 138.56801758 4.21893555 139.33500977 4.31323242 140.12524414 C4.92186277 142.24308448 4.92186277 142.24308448 6.83984375 143.20092773 C17.00147059 147.30687965 31.48385013 145.4454793 42.34838867 145.67602539 C48.86588867 145.82040039 55.38338867 145.96477539 62.09838867 146.11352539 C62.09838867 165.91352539 62.09838867 185.71352539 62.09838867 206.11352539 C50.46588867 206.14446289 50.46588867 206.14446289 38.59838867 206.17602539 C34.97966797 206.1896814 34.97966797 206.1896814 31.2878418 206.20361328 C-22.62239577 206.32628184 -22.62239577 206.32628184 -42.42895508 186.95727539 C-56.82938173 170.39564726 -57.52358639 150.61970776 -57.43286133 129.70336914 C-57.43556429 127.47912935 -57.43945335 125.25489071 -57.44445801 123.03065491 C-57.450314 118.39727388 -57.4419161 113.76420389 -57.4230957 109.13085938 C-57.40029551 103.23507677 -57.4134616 97.34002239 -57.43738556 91.44426632 C-57.45193815 86.86018019 -57.44719467 82.2762627 -57.43687439 77.6921711 C-57.43423387 75.51997348 -57.43738094 73.34775981 -57.4467926 71.17558098 C-57.51622664 50.65708492 -55.44925239 31.00172931 -40.50708008 15.43383789 C-29.27045471 5.4270081 -15.0130293 -0.02744612 0 0 Z " fill="#F9CE07" transform="translate(879.901611328125,174.886474609375)"/>
<path d="M0 0 C51.48 0 102.96 0 156 0 C156 19.8 156 39.6 156 60 C140.49 60 124.98 60 109 60 C109 107.85 109 155.7 109 205 C88.54 205 68.08 205 47 205 C47 157.15 47 109.3 47 60 C31.49 60 15.98 60 0 60 C0 40.2 0 20.4 0 0 Z " fill="#F9CE07" transform="translate(1140,175)"/>
<path d="M0 0 C1.38877408 -0.01169251 2.77749762 -0.03240494 4.16601562 -0.06152344 C16.65176982 -0.32016827 27.51565036 1.30623683 36.95727539 10.12719727 C46.41281411 19.88151695 49.8410393 32.27540631 50.30883789 45.60766602 C50.03334215 57.6606047 47.107236 70.08873426 38.74633789 79.10766602 C34.95509678 82.63946237 30.62283941 85.01863352 25.99633789 87.29516602 C27.01211914 87.62387695 28.02790039 87.95258789 29.07446289 88.29125977 C48.14616311 94.75632178 61.2470653 108.44816732 75.12133789 122.48266602 C81.11857512 128.53818406 87.17049103 134.16781915 93.99633789 139.29516602 C94.83551758 139.9280957 95.67469727 140.56102539 96.53930664 141.21313477 C106.2438246 148.26959821 116.65047364 154.47528539 128.99633789 153.29516602 C131.92714463 152.42863187 131.92714463 152.42863187 133.99633789 151.29516602 C134.32633789 152.94516602 134.65633789 154.59516602 134.99633789 156.29516602 C127.71490855 162.58367318 122.11774541 164.76299571 112.32055664 164.11938477 C100.3492288 162.40424518 90.92209143 156.12147503 81.99633789 148.29516602 C81.23192383 147.6287207 80.46750977 146.96227539 79.67993164 146.27563477 C77.0914919 143.9771685 74.54092492 141.64211522 71.99633789 139.29516602 C71.44316895 138.78711426 70.89 138.2790625 70.32006836 137.75561523 C63.96312713 131.91013217 57.67320844 126.03736305 51.66748047 119.8293457 C38.79587482 106.58252214 22.92601744 94.47764672 3.99633789 92.29516602 C4.89094727 92.84043945 5.78555664 93.38571289 6.70727539 93.94750977 C13.48909013 98.15061616 19.70752581 102.44287528 25.51977539 107.95922852 C27.53927672 109.86405785 29.59116742 111.67706084 31.69555664 113.48510742 C35.74336375 117.02002454 39.53172793 120.74938925 43.28540039 124.59204102 C44.65358664 125.97775724 46.02208642 127.36316396 47.39086914 128.74829102 C49.49999768 130.88814212 51.606702 133.03020473 53.70776367 135.17797852 C74.61501156 156.57956275 74.61501156 156.57956275 101.99633789 167.29516602 C101.99633789 168.28516602 101.99633789 169.27516602 101.99633789 170.29516602 C92.66753703 173.4047663 79.66247338 172.25819933 70.67993164 168.67016602 C56.5385059 161.42448645 45.25990854 148.62894624 34.12133789 137.54516602 C33.32469727 136.75327881 32.52805664 135.9613916 31.70727539 135.14550781 C27.52607274 130.95246661 23.52260891 126.67462462 19.65844727 122.1887207 C10.13461908 111.33871902 -0.24738661 100.92099385 -13.31616211 94.57250977 C-13.96133789 94.25471558 -14.60651367 93.93692139 -15.27124023 93.60949707 C-16.84678653 92.83412405 -18.42495833 92.06408982 -20.00366211 91.29516602 C-20.07870612 97.28675708 -20.1326799 103.27806509 -20.16845703 109.27001953 C-20.18339662 111.30164363 -20.20375573 113.33323633 -20.22998047 115.36474609 C-20.86576536 139.71902582 -20.86576536 139.71902582 -10.62866211 161.10766602 C-6.8167675 164.28424486 -2.89227036 166.35504904 1.99633789 167.29516602 C1.99633789 168.94516602 1.99633789 170.59516602 1.99633789 172.29516602 C-1.96366211 171.96516602 -5.92366211 171.63516602 -10.00366211 171.29516602 C-18.25366211 170.96516602 -26.50366211 170.63516602 -35.00366211 170.29516602 C-35.00366211 114.52516602 -35.00366211 58.75516602 -35.00366211 1.29516602 C-10.3011409 0.06003996 -10.3011409 0.06003996 0 0 Z M-18.00366211 15.29516602 C-22.36318696 23.06649293 -21.14757033 34.94655493 -21.10131836 43.65063477 C-21.09990341 44.67828445 -21.09848846 45.70593414 -21.09703064 46.76472473 C-21.09149277 50.0040698 -21.07895241 53.24334231 -21.06616211 56.48266602 C-21.06113906 58.69685772 -21.05657757 60.91105051 -21.05249023 63.12524414 C-21.0415438 68.5152423 -21.02486901 73.90519897 -21.00366211 79.29516602 C-9.49033441 82.85425051 6.66877402 83.78793096 17.84008789 78.61938477 C26.88904351 73.06214572 31.11692617 66.74065059 33.58618164 56.48730469 C34.27637392 52.79847346 34.33691779 49.16442031 34.30883789 45.42016602 C34.30319824 44.63077637 34.29755859 43.84138672 34.29174805 43.02807617 C34.08951324 33.29477502 32.00406281 25.38180676 24.99633789 18.29516602 C17.44568926 12.26385522 9.50576467 10.93433995 0.05883789 10.92016602 C-0.79645508 10.89567383 -1.65174805 10.87118164 -2.53295898 10.84594727 C-8.42471492 10.81898271 -13.15468997 11.78594007 -18.00366211 15.29516602 Z " fill="#8B4E06" transform="translate(980.003662109375,410.704833984375)"/>
<path d="M0 0 C0 1.32 0 2.64 0 4 C-0.97839844 4.41958984 -0.97839844 4.41958984 -1.9765625 4.84765625 C-9.46267129 8.28154981 -14.64294932 11.99130347 -17.75 19.8125 C-22.75833957 37.6362967 -21.46034359 58.19133855 -22 76 C4.4 76 30.8 76 58 76 C57.9175 69.235 57.835 62.47 57.75 55.5 C57.73420898 53.40076172 57.71841797 51.30152344 57.70214844 49.13867188 C57.55180523 28.04984647 57.55180523 28.04984647 48 10 C44.1969556 7.00611398 40.64306391 5.32658969 36 4 C36 2.68 36 1.36 36 0 C47.88 0.33 59.76 0.66 72 1 C72 56.77 72 112.54 72 170 C60.12 170.66 48.24 171.32 36 172 C36 170.35 36 168.7 36 167 C36.88751953 166.63648438 36.88751953 166.63648438 37.79296875 166.265625 C45.66978278 162.92472508 50.26752127 159.87358345 53.85888672 151.89892578 C58.63462268 139.76647203 57.43947545 125.54328083 57.625 112.75 C57.74875 105.2425 57.8725 97.735 58 90 C31.6 90 5.2 90 -22 90 C-21.87625 96.785625 -21.7525 103.57125 -21.625 110.5625 C-21.59100098 112.67084229 -21.55700195 114.77918457 -21.52197266 116.95141602 C-21.99674864 139.35780968 -21.99674864 139.35780968 -13.20703125 158.9921875 C-9.14855906 162.77590818 -5.21458653 165.15316727 0 167 C0 168.65 0 170.3 0 172 C-11.88 171.34 -23.76 170.68 -36 170 C-36 114.23 -36 58.46 -36 1 C-12 0 -12 0 0 0 Z " fill="#8B4E06" transform="translate(538,411)"/>
<path d="M0 0 C0.79319409 11.6996129 1.12340891 23.27615336 1 35 C-0.32 35 -1.64 35 -3 35 C-3.37511719 34.26394531 -3.75023437 33.52789062 -4.13671875 32.76953125 C-8.48733981 24.47376263 -11.87166029 19.26012132 -21 16 C-24.51909343 15.16387028 -27.82010997 14.85503396 -31.43286133 14.79467773 C-32.49358353 14.77473251 -33.55430573 14.75478729 -34.64717102 14.73423767 C-35.7806749 14.71752518 -36.91417877 14.70081268 -38.08203125 14.68359375 C-39.25134689 14.66281265 -40.42066254 14.64203156 -41.62541199 14.62062073 C-45.35438253 14.55532586 -49.08342247 14.49633341 -52.8125 14.4375 C-55.34310609 14.39429571 -57.8737052 14.35068081 -60.40429688 14.30664062 C-66.60279158 14.199665 -72.80135506 14.09786152 -79 14 C-80.82429878 27.71761212 -81.40662719 41.29699664 -81.625 55.125 C-81.6633077 57.16277475 -81.7023661 59.20053552 -81.7421875 61.23828125 C-81.83674582 66.15873673 -81.92126315 71.07926697 -82 76 C-71.63726886 75.71487133 -61.27551457 75.40673765 -50.91455078 75.06317139 C-49.25297458 75.008347 -47.59133601 74.95541919 -45.9296875 74.90283203 C-31.47761312 74.80499466 -31.47761312 74.80499466 -19.125 68.375 C-16.62304961 64.40131409 -14.73275786 60.35609519 -13 56 C-11.35 56 -9.7 56 -8 56 C-8.03552979 56.79994385 -8.07105957 57.5998877 -8.10766602 58.42407227 C-9.04768859 77.66203694 -9.04768859 77.66203694 -8.2578125 96.8828125 C-7.84125082 101.91942193 -7.91536942 106.95037531 -8 112 C-9.65 111.67 -11.3 111.34 -13 111 C-13.15855469 110.20335937 -13.31710937 109.40671875 -13.48046875 108.5859375 C-14.91276962 102.08123408 -16.0089703 97.52674787 -21 93 C-26.26099265 89.82148361 -31.08344861 88.90231863 -37.1574707 88.79467773 C-38.65846062 88.7647599 -38.65846062 88.7647599 -40.18977356 88.73423767 C-41.2576561 88.71752518 -42.32553864 88.70081268 -43.42578125 88.68359375 C-44.52850876 88.66281265 -45.63123627 88.64203156 -46.76737976 88.62062073 C-50.28235778 88.55535068 -53.79740912 88.49634505 -57.3125 88.4375 C-59.69857523 88.39429335 -62.08464309 88.35067837 -64.47070312 88.30664062 C-70.31372506 88.1996924 -76.15681958 88.09788445 -82 88 C-81.88100708 95.25513823 -81.75623174 102.51016153 -81.62768555 109.76513672 C-81.58472887 112.22637756 -81.54303178 114.68764076 -81.50268555 117.14892578 C-81.28368823 130.45639262 -81.04250211 143.72760509 -80 157 C-74.88118835 157.02511494 -69.7624142 157.04305163 -64.64355469 157.05493164 C-62.90982436 157.05989522 -61.17609806 157.06666827 -59.44238281 157.07543945 C-28.38320379 158.27326496 -28.38320379 158.27326496 -1.70703125 144.78515625 C1.07964866 141.73452851 3.53269837 138.92036415 5.41015625 135.22265625 C5.93480469 134.48917969 6.45945312 133.75570312 7 133 C8.65 133 10.3 133 12 133 C9.41387661 145.93061695 5.03524931 158.44589104 1 171 C-31.01 170.67 -63.02 170.34 -96 170 C-96 114.56 -96 59.12 -96 2 C-19 0 -19 0 0 0 Z " fill="#8B4E06" transform="translate(1266,411)"/>
<path d="M0 0 C4.12498387 -0.02985125 8.24993897 -0.04707509 12.375 -0.0625 C13.51195312 -0.07087891 14.64890625 -0.07925781 15.8203125 -0.08789062 C25.57688028 -0.1149922 35.26554673 0.38422051 45 1 C53.95027093 19.39085968 62.88562495 37.78753038 71.6875 56.25 C78.71355759 70.97126351 85.79870855 85.664213 92.89468384 100.35186768 C97.4236639 109.72657647 101.94127316 119.10665707 106.43457031 128.49853516 C108.89220644 133.63056071 111.36424075 138.75495107 113.8651123 143.86602783 C115.17615973 146.54598905 116.48310881 149.22794119 117.79003906 151.90991211 C118.4259145 153.21158083 119.06390927 154.51221655 119.70410156 155.81176758 C120.59442883 157.61933789 121.47707797 159.43068398 122.359375 161.2421875 C122.86952148 162.2822998 123.37966797 163.32241211 123.90527344 164.39404297 C125 167 125 167 125 170 C112.46 170.66 99.92 171.32 87 172 C87 170.35 87 168.7 87 167 C88.8871875 166.4121875 88.8871875 166.4121875 90.8125 165.8125 C93.65512176 164.72576319 94.90528934 164.10358978 97 161.8125 C100.79704756 151.13330375 94.60575393 139.16959436 90.05180359 129.4785614 C88.29388284 125.82415048 86.49504046 122.192885 84.6875 118.5625 C82.150625 113.426875 79.61375 108.29125 77 103 C47.3 102.505 47.3 102.505 17 102 C16.34 103.98 15.68 105.96 15 108 C13.82673162 110.46186683 12.62796212 112.88471893 11.375 115.3046875 C10.66123753 116.70691888 9.94770292 118.10926626 9.234375 119.51171875 C8.11837966 121.69418591 6.99985678 123.87527791 5.87695312 126.05419922 C4.78573261 128.17575054 3.70484106 130.30232677 2.625 132.4296875 C2.29161621 133.06953583 1.95823242 133.70938416 1.61474609 134.36862183 C-2.08827857 141.69490967 -4.03667806 148.86837428 -2 157 C0.69496873 162.7133337 4.39476792 164.68716152 10 167 C10 168.65 10 170.3 10 172 C9.31429932 171.9292627 8.62859863 171.85852539 7.92211914 171.78564453 C0.08834911 171.04772298 -7.67918194 170.84476829 -15.5456543 170.86962891 C-17.56371535 170.87500324 -19.58155487 170.86963887 -21.59960938 170.86328125 C-29.12381229 170.87069061 -36.52311058 171.13995691 -44 172 C-44.13061523 169.60424805 -44.13061523 169.60424805 -44 167 C-41.91015625 165.33203125 -41.91015625 165.33203125 -39.0625 163.8125 C-23.20987251 154.35369794 -14.86520631 136.29752645 -6.8125 120.3125 C-6.07177414 118.8563582 -5.33022193 117.4006365 -4.58789062 115.9453125 C-3.09313831 113.01390949 -1.60139565 110.08100738 -0.11181641 107.14697266 C2.88847349 101.24542299 5.94382528 95.3727802 9 89.5 C12.81529438 82.15583641 16.61810793 74.80551668 20.40234375 67.4453125 C20.77920319 66.71258118 21.15606262 65.97984985 21.54434204 65.22491455 C23.38209846 61.65142558 25.21854389 58.07727369 27.05273438 54.50195312 C27.56182846 53.51198334 27.56182846 53.51198334 28.08120728 52.50201416 C28.74731632 51.20567015 29.41139977 49.90828308 30.07333374 48.60980225 C31.68640311 45.46359606 33.34724643 42.36555735 35.12939453 39.31152344 C35.46572403 38.72494965 35.80205353 38.13837585 36.14857483 37.5340271 C37.06760457 35.94212174 38.00686636 34.36194513 38.94750977 32.78271484 C40.29506897 30.03906932 40.29506897 30.03906932 39.26757812 27.27563477 C33.11059783 16.22224236 24.04760757 9.61602074 12 6 C8.0176402 5.17053808 4.03296168 4.52664104 0 4 C0 2.68 0 1.36 0 0 Z M48 43 C47.62302979 43.72888428 47.24605957 44.45776855 46.85766602 45.20874023 C45.41533307 47.99657726 43.97236215 50.7840828 42.52886963 53.57131958 C41.88639864 54.81201127 41.24410435 56.05279448 40.60198975 57.29367065 C37.45183352 63.38019466 34.29958479 69.4648072 31.06640625 75.5078125 C30.64738037 76.29099854 30.22835449 77.07418457 29.79663086 77.88110352 C29.03160845 79.30545759 28.26304397 80.72791647 27.49047852 82.14819336 C25.61570241 85.38988195 25.61570241 85.38988195 25 89 C40.18 89 55.36 89 71 89 C63.78377046 72.8636511 63.78377046 72.8636511 56.0625 57 C55.59521484 56.07445312 55.12792969 55.14890625 54.64648438 54.1953125 C53.79761864 52.51463142 52.94707891 50.83479351 52.09399414 49.15625 C51.0548047 47.10801943 50.02504271 45.05534054 49 43 C48.67 43 48.34 43 48 43 Z " fill="#8B4E06" transform="translate(715,411)"/>
<path d="M0 0 C1.19507733 0.68217715 2.39089189 1.36306423 3.58740234 2.04272461 C7.21664763 4.11125968 10.82835694 6.20914323 14.4375 8.3125 C15.4908252 8.92448242 16.54415039 9.53646484 17.62939453 10.16699219 C21.59593566 12.47393813 25.55950784 14.78574107 29.51586914 17.11010742 C36.60575773 21.27096642 43.75414999 25.31543904 50.9375 29.3125 C59.11940842 33.86519292 67.2406357 38.50498069 75.3125 43.25 C83.78716175 48.22984077 92.33171052 53.06299742 100.9375 57.8125 C109.86553902 62.74411752 118.74682913 67.74488374 127.5625 72.875 C128.52736328 73.43445313 129.49222656 73.99390625 130.48632812 74.5703125 C150.22731429 86.11718954 150.22731429 86.11718954 152.375 93.5625 C152.45612825 98.43019505 151.73812027 102.01751238 149.4375 106.3125 C143.95129269 111.69308678 136.61689661 115.16843469 129.9375 118.8125 C121.37411699 123.54303785 112.87008462 128.35248504 104.4375 133.3125 C95.28883192 138.68524143 86.06344934 143.90327602 76.79296875 149.0625 C69.62395936 153.06214659 62.51666232 157.15612972 55.4375 161.3125 C46.39323713 166.62057522 37.28227443 171.79348249 28.12036133 176.89550781 C18.52858362 182.24255757 8.99586262 187.69004806 -0.52636719 193.15966797 C-1.64817383 193.80307129 -2.76998047 194.44647461 -3.92578125 195.109375 C-5.41525269 195.96547363 -5.41525269 195.96547363 -6.93481445 196.83886719 C-13.06335223 200.27581358 -17.47419285 201.15487853 -24.5625 200.3125 C-28.95076427 198.11836786 -32.50188856 195.42784353 -34.12794113 190.65162468 C-34.73228125 187.39860885 -34.70702095 184.18272052 -34.70294189 180.88650513 C-34.70591302 180.13594719 -34.70888414 179.38538925 -34.7119453 178.61208713 C-34.72062074 176.09570956 -34.72213956 173.57937962 -34.72363281 171.06298828 C-34.72826174 169.25934752 -34.7332865 167.45570774 -34.73867798 165.65206909 C-34.75179529 160.75123331 -34.75824543 155.85041123 -34.76268864 150.94956064 C-34.76561995 147.88808285 -34.76972484 144.82660881 -34.77419281 141.7651329 C-34.7878649 132.18739086 -34.79753343 122.60965737 -34.8013947 113.03190625 C-34.80587731 101.9737134 -34.82343584 90.91564404 -34.8523953 79.85748875 C-34.87400222 71.31046104 -34.88409843 62.76346811 -34.88543582 54.21641338 C-34.8864844 49.111117 -34.89240364 44.00593674 -34.91025543 38.9006691 C-34.92671936 34.09899695 -34.92889977 29.29752846 -34.92011642 24.49583817 C-34.9193452 22.73421178 -34.92370004 20.97257452 -34.93357468 19.21097565 C-34.94627215 16.80456158 -34.94042972 14.39887123 -34.92999268 11.99246216 C-34.93804908 11.2967332 -34.94610548 10.60100424 -34.95440602 9.88419259 C-34.90130014 4.64258785 -33.61137999 0.61270927 -30.09765625 -3.33203125 C-19.70439227 -11.57496475 -10.12169686 -5.90298759 0 0 Z M-24.23187351 2.38678837 C-26.24143367 5.29506759 -25.97928212 8.22049953 -25.95018005 11.63169861 C-25.95556559 12.38281325 -25.96095113 13.1339279 -25.96649987 13.9078036 C-25.98084121 16.43210917 -25.97366071 18.9558949 -25.96655273 21.48022461 C-25.9722531 23.28696618 -25.97921605 25.09370415 -25.98735046 26.9004364 C-26.00533417 31.81364546 -26.0041037 36.72667643 -25.99840808 41.63990855 C-25.99532368 45.7380015 -26.00140033 49.83605986 -26.00744683 53.93414789 C-26.02150762 63.60025204 -26.01991791 73.26626784 -26.00854492 82.93237305 C-25.99706234 92.91230354 -26.01113822 102.89196536 -26.0379414 112.87186044 C-26.0600761 121.43329068 -26.06674081 129.99463645 -26.06086498 138.55609328 C-26.05748883 143.67253618 -26.05995403 148.78880684 -26.07711601 153.90522575 C-26.09254754 158.71598341 -26.08867191 163.52634214 -26.06981087 168.33708382 C-26.06611442 170.10438077 -26.06926407 171.87170703 -26.07969666 173.63897705 C-26.09283669 176.04855477 -26.08142258 178.45679818 -26.06370544 180.86631775 C-26.07331045 181.56855451 -26.08291546 182.27079127 -26.09281152 182.99430794 C-26.04214468 186.33478726 -25.7479939 188.0650401 -23.72087193 190.76934147 C-21.59234589 192.58710859 -21.59234589 192.58710859 -18.52734375 192.44921875 C-12.91487815 191.25048306 -8.02787483 187.97564982 -3.125 185.125 C-1.47661133 184.18430664 -1.47661133 184.18430664 0.20507812 183.22460938 C3.62412413 181.26779688 7.03252155 179.29367711 10.4375 177.3125 C11.46246582 176.71614746 12.48743164 176.11979492 13.54345703 175.50537109 C17.50335509 173.19742333 21.46095097 170.8856448 25.41381836 168.56567383 C33.57599279 163.78370641 41.82044635 159.15984796 50.08642578 154.56030273 C57.21378267 150.58434365 64.27689092 146.51086002 71.3125 142.375 C79.78715575 137.39516276 88.33159719 132.5617902 96.9375 127.8125 C105.89204268 122.86883952 114.79123319 117.84418398 123.625 112.6875 C124.59824219 112.11966797 125.57148438 111.55183594 126.57421875 110.96679688 C129.20184144 109.42602093 131.82222104 107.87412281 134.4375 106.3125 C135.23365723 105.83844727 136.02981445 105.36439453 136.85009766 104.87597656 C137.57632324 104.43479492 138.30254883 103.99361328 139.05078125 103.5390625 C139.68411377 103.15572754 140.31744629 102.77239258 140.9699707 102.37744141 C142.60397905 101.36391561 142.60397905 101.36391561 143.4375 99.3125 C143.93792146 96.39711971 143.93792146 96.39711971 143.4375 93.3125 C140.18388916 90.33505287 136.63661828 88.14816563 132.80859375 85.984375 C131.70580078 85.35789062 130.60300781 84.73140625 129.46679688 84.0859375 C128.26955091 83.41142343 127.07228473 82.73694526 125.875 82.0625 C124.6214823 81.35202542 123.36823183 80.64107918 122.11523438 79.9296875 C119.51388814 78.45325109 116.91140788 76.97884365 114.30810547 75.50585938 C108.34040794 72.12702511 102.38994529 68.71811113 96.4375 65.3125 C94.69182969 64.31494788 92.94598639 63.31769898 91.20013428 62.32046509 C86.50201733 59.63682116 81.80514291 56.95103084 77.11056519 54.26119995 C74.15746984 52.5692216 71.20387011 50.87812536 68.25 49.1875 C67.66899536 48.85494202 67.08799072 48.52238403 66.48937988 48.17974854 C58.24964728 43.46580033 49.97946887 38.80893392 41.6875 34.1875 C33.46988967 29.6056384 25.30776247 24.93973993 17.1875 20.1875 C16.20563721 19.61483398 15.22377441 19.04216797 14.2121582 18.45214844 C9.29614395 15.58240013 4.39492827 12.69086386 -0.48828125 9.765625 C-2.36700195 8.65593581 -4.24590048 7.5465476 -6.125 6.4375 C-6.97545898 5.91913574 -7.82591797 5.40077148 -8.70214844 4.86669922 C-16.19297469 0.47821047 -16.19297469 0.47821047 -24.23187351 2.38678837 Z " fill="#8D5006" transform="translate(130.5625,395.6875)"/>
<path d="M0 0 C1.09399109 -0.00492462 1.09399109 -0.00492462 2.21008301 -0.00994873 C16.72207685 -0.03101517 33.2468654 0.0731179 46.625 6.3125 C47.60460349 20.9890594 47.74207333 35.6062883 47.625 50.3125 C45.975 50.3125 44.325 50.3125 42.625 50.3125 C42.52703125 49.5390625 42.4290625 48.765625 42.328125 47.96875 C40.900281 38.02307803 38.84076379 31.35580314 30.8828125 24.91015625 C16.72672043 14.89312916 0.43602771 13.94397678 -16.375 15.3125 C-25.60383629 16.96083907 -32.83480292 21.04610865 -38.8125 28.25 C-41.86958997 34.24189634 -41.58323879 38.75943663 -39.75 45.00390625 C-36.34355309 50.72325319 -30.43322959 54.23111457 -24.5 56.9375 C-23.80583984 57.26105469 -23.11167969 57.58460938 -22.39648438 57.91796875 C-14.40151853 61.50808597 -6.1215951 64.36519822 2.125 67.3125 C43.85829577 82.25465171 43.85829577 82.25465171 52.83984375 100.82421875 C57.84273784 112.73502355 58.13921855 125.05055135 53.9609375 137.2890625 C51.15059112 143.64932009 47.10518156 149.36696293 40.625 152.3125 C40.91375 151.61125 41.2025 150.91 41.5 150.1875 C46.23295409 138.09217288 47.18471257 125.98561185 42.2109375 113.8671875 C35.17555332 98.26191835 23.92348715 90.98718205 8.32958984 85.0246582 C1.13827209 82.3400288 -6.09100731 79.76506104 -13.328125 77.20703125 C-46.92488073 65.28394198 -46.92488073 65.28394198 -52.75 54.1875 C-56.78964282 45.44079511 -56.78992845 34.45997399 -53.8125 25.375 C-51.58459493 20.10619995 -48.52696039 16.20710747 -44.375 12.3125 C-43.81296875 11.76851563 -43.2509375 11.22453125 -42.671875 10.6640625 C-31.01455985 0.67931865 -14.57537097 0.05329575 0 0 Z " fill="#8B4E06" transform="translate(381.375,408.6875)"/>
<path d="M0 0 C0.66 0.33 1.32 0.66 2 1 C1.76023437 1.80050781 1.76023437 1.80050781 1.515625 2.6171875 C-0.74854621 13.08040296 1.06711831 23.57800369 6.625 32.625 C16.95147083 46.89613243 33.03548116 51.9416193 49.12115479 57.14196777 C90.08203704 70.46393262 90.08203704 70.46393262 99.125 87.921875 C102.68704909 96.3817416 102.32309075 108.37591709 99.375 117 C94.47165306 128.29307431 87.21599947 137.02148794 75.75 141.9375 C56.38426683 149.49423451 33.65806085 144.54812284 14.02734375 140.54736328 C10.3042264 139.87419964 6.59950594 139.5004278 2.828125 139.22631836 C1 139 1 139 0 138 C-0.25182761 134.93143397 -0.43181547 131.88720902 -0.5625 128.8125 C-0.6049585 127.86101074 -0.64741699 126.90952148 -0.69116211 125.92919922 C-1.21627391 112.62707131 -1.08782963 99.30956648 -1 86 C0.65 86 2.3 86 4 86 C4.23074219 87.05058594 4.46148437 88.10117187 4.69921875 89.18359375 C6.49918502 97.0632583 8.22024302 104.32713702 13 111 C13.47953125 111.67160156 13.9590625 112.34320312 14.453125 113.03515625 C21.69725959 122.16065589 32.52152356 128.93413247 44 131 C54.00420662 131.98611322 64.12157216 132.27859745 73 127 C73.65097656 126.63777344 74.30195313 126.27554688 74.97265625 125.90234375 C80.58452386 122.38747975 83.92543627 117.2236912 86 111 C86.68215504 102.8253224 86.29280229 97.02458556 82 90 C81.67 89.01 81.34 88.02 81 87 C79.25000586 85.92937854 79.25000586 85.92937854 77 85 C76.08524902 84.51072021 75.17049805 84.02144043 74.22802734 83.51733398 C63.56108887 77.93835458 52.47265346 74.08387953 41.10058594 70.20043945 C32.21945332 67.15412474 23.51403258 64.0037181 15.09375 59.82421875 C14.12690781 59.34638695 14.12690781 59.34638695 13.14053345 58.85890198 C2.94423599 53.60941989 -2.98709222 45.61987381 -7 35 C-9.78401357 21.63673489 -6.87314212 11.56330513 0 0 Z " fill="#8B4E06" transform="translate(316,438)"/>
<path d="M0 0 C5.61 0 11.22 0 17 0 C20.66843562 7.18119962 24.03991717 14.45366 27.30133057 21.82781982 C33.2863814 35.34086271 39.53065581 48.7118162 46 62 C46.33920471 62.69689941 46.67840942 63.39379883 47.02789307 64.11181641 C50.66063271 71.57472066 54.29391716 79.0373523 57.93969727 86.49389648 C62.05226696 94.9102273 66.11831116 103.34282492 70.09619141 111.82373047 C80.17408732 133.22457704 91.68988753 154.6417335 114 165 C114 166.65 114 168.3 114 170 C85.45834619 170.69145326 85.45834619 170.69145326 78.82910156 166.68945312 C75.76359159 163.19870678 74.8083407 158.90876687 73.72607422 154.47900391 C72.36755261 149.84066213 69.9348924 145.69613612 67.6875 141.4375 C66.73389051 139.54452378 65.78603113 137.64864065 64.84375 135.75 C64.37066406 134.79738281 63.89757812 133.84476563 63.41015625 132.86328125 C60.19289787 126.33073169 57.07424521 119.75093913 53.9453125 113.17578125 C50.67794378 106.31252514 47.37090917 99.46852959 44.0625 92.625 C39.20631958 82.57690688 34.36634243 72.5211963 29.54150391 62.45800781 C25.98481424 55.04323406 22.41258188 47.63604837 18.83453369 40.23156738 C14.08855732 30.40894308 9.34633512 20.58449519 4.625 10.75 C4.15441162 9.77337402 3.68382324 8.79674805 3.19897461 7.79052734 C2.77495361 6.90574707 2.35093262 6.0209668 1.9140625 5.109375 C1.5423291 4.33561523 1.1705957 3.56185547 0.78759766 2.76464844 C0 1 0 1 0 0 Z " fill="#8B4E06" transform="translate(771,413)"/>
<path d="M0 0 C0 1.32 0 2.64 0 4 C-1.19625 4.515625 -2.3925 5.03125 -3.625 5.5625 C-10.61587539 9.10734318 -14.5528819 14.59441621 -17.12324524 21.92948914 C-20.92582136 35.24661248 -20.31140108 49.61308223 -20.30078125 63.32421875 C-20.30467949 65.44497255 -20.30901643 67.56572559 -20.31376648 69.68647766 C-20.32117518 74.10294137 -20.32097515 78.51932503 -20.31567383 82.93579102 C-20.30986477 88.56385397 -20.32687118 94.19158937 -20.3500185 99.8195982 C-20.36482022 104.18907041 -20.36561917 108.55846469 -20.36250877 112.92795753 C-20.36301804 115.0021613 -20.36818053 117.07636989 -20.37832069 119.15054893 C-20.61533527 140.66464642 -20.61533527 140.66464642 -12 160 C-8.43966376 163.56033624 -4.61968396 165.18835923 0 167 C0 168.65 0 170.3 0 172 C-11.55 171.34 -23.1 170.68 -35 170 C-35 114.23 -35 58.46 -35 1 C-11 0 -11 0 0 0 Z " fill="#8B4E06" transform="translate(656,411)"/>
<path d="M0 0 C12.04248423 -0.20802756 23.93413434 0.47539715 36 1 C36 56.77 36 112.54 36 170 C24.12 170.66 12.24 171.32 0 172 C0 170.35 0 168.7 0 167 C0.56847656 166.8040625 1.13695312 166.608125 1.72265625 166.40625 C9.1084708 163.54563401 13.69166005 159.56756629 17.28515625 152.45703125 C22.58683077 139.28835584 21.16292657 124.22922753 21.16796875 110.28515625 C21.17118882 108.18110635 21.17455343 106.07705666 21.17805481 103.9730072 C21.18401501 99.57973715 21.18589783 95.18648669 21.18530273 90.79321289 C21.18520107 85.19425605 21.19887187 79.59542589 21.21607494 73.99649906 C21.22724948 69.65619847 21.2292203 65.31592804 21.22869301 60.97561455 C21.22986419 58.91257731 21.23423691 56.84953906 21.24202538 54.78651619 C21.81988894 32.24846536 21.81988894 32.24846536 13.75 11.75 C9.86526672 7.86526672 5.56267869 4.89002859 0 4 C0 2.68 0 1.36 0 0 Z " fill="#8B4E06" transform="translate(456,411)"/>
<path d="M0 0 C12.37993604 -0.19310126 24.59585747 0.46068946 37 1 C37 56.77 37 112.54 37 170 C24.79 170.66 12.58 171.32 0 172 C0 170.35 0 168.7 0 167 C0.56847656 166.85304688 1.13695312 166.70609375 1.72265625 166.5546875 C8.3844324 164.61954718 13.5349896 162.02104821 17.25 155.9609375 C21.49798158 147.1213876 22.29972241 137.83018792 22.29052734 128.15698242 C22.29724457 127.12301834 22.30396179 126.08905426 22.31088257 125.02375793 C22.32974917 121.63427819 22.3337809 118.24499761 22.3359375 114.85546875 C22.3423728 112.47951682 22.3491017 110.10356567 22.35610962 107.72761536 C22.36805371 102.75743778 22.37179335 97.78732957 22.37060547 92.81713867 C22.37040234 86.47588777 22.39771209 80.13508529 22.43214989 73.79394054 C22.45448078 68.88916515 22.45844112 63.98449668 22.45738602 59.07967567 C22.45973235 56.74310065 22.46850076 54.40652225 22.48405075 52.06999779 C23.04714629 30.74824848 23.04714629 30.74824848 14 12 C9.63100892 7.73030417 5.69558507 5.86579511 0 4 C0 2.68 0 1.36 0 0 Z " fill="#8B4E06" transform="translate(897,411)"/>
<path d="M0 0 C11.68404898 -0.14915807 23.50220242 -0.29955952 35 2 C35 57.44 35 112.88 35 170 C17.675 170.495 17.675 170.495 0 171 C0 169.68 0 168.36 0 167 C0.58007812 166.79246094 1.16015625 166.58492187 1.7578125 166.37109375 C8.80672044 163.5910789 12.95589325 160.33062359 16.21875 153.41796875 C19.77795023 144.32929673 20.14923927 135.41433124 20.16113281 125.74536133 C20.16609772 124.76191742 20.17106262 123.77847351 20.17617798 122.76522827 C20.19068694 119.5374886 20.19758272 116.30979807 20.203125 113.08203125 C20.20595238 111.97140509 20.20877975 110.86077892 20.21169281 109.71649742 C20.22663978 103.83890931 20.23589759 97.96134546 20.24023438 92.08374023 C20.24571214 86.04643678 20.26973869 80.00935961 20.29820633 73.97212696 C20.31692836 69.29893872 20.32204338 64.62580397 20.32357025 59.95258141 C20.32657576 57.72847952 20.33453221 55.5043781 20.34775543 53.28031349 C21.0501889 29.71122294 21.0501889 29.71122294 10.5546875 9.48046875 C7.33673185 6.55735197 4.17310864 5.09295702 0 4 C0 2.68 0 1.36 0 0 Z " fill="#8B4E06" transform="translate(1124,411)"/>
<path d="M0 0 C9.41314303 2.41362642 18.47368591 9.17153266 23.5078125 17.4921875 C28.65289146 27.40013956 29.78023399 38.40932773 26.875 49.3125 C23.12109208 59.94566243 16.38586516 66.23877834 6.625 71.4375 C5.42875 71.953125 4.2325 72.46875 3 73 C2.34 72.67 1.68 72.34 1 72 C1.39832031 71.18917969 1.79664063 70.37835938 2.20703125 69.54296875 C10.1191714 53.00640333 13.74270846 36.49532022 7.890625 18.609375 C5.71714707 12.73293467 3.21786244 7.36310407 0 2 C0 1.34 0 0.68 0 0 Z " fill="#8B4E06" transform="translate(1029,418)"/>
</svg>
